<svg xmlns="http://www.w3.org/2000/svg" xmlns:svg="http://www.w3.org/2000/svg" id="svg2" width="26" height="26" version="1.1"><metadata id="metadata50"/><path id="path4498" fill="#c8beb7" fill-rule="evenodd" stroke="#1a1a1a" stroke-linecap="round" stroke-linejoin="round" stroke-opacity="1" stroke-width="1" d="m 26.5,27.5 -19,-18 -6,6 -1,-1 4,-8 v 0 l 5,-5 1,1 4,-2 1,1 -3,3 14,14"/><path id="path4502" fill="#c8beb7" fill-rule="evenodd" stroke="#1a1a1a" stroke-linecap="round" stroke-linejoin="round" stroke-opacity="1" stroke-width="1" d="m 16,9 3.5,-3.5 1,1 -1,3 5.5,5.5 -1.5,1.5 z"/><path id="path4504" fill="#f2f2f2" fill-rule="evenodd" stroke="#1a1a1a" stroke-linecap="round" stroke-linejoin="miter" stroke-opacity="1" stroke-width="1" d="m 10.5,11.5 3,-3"/><path id="path4506" fill="#f2f2f2" fill-rule="evenodd" stroke="#1a1a1a" stroke-linecap="round" stroke-linejoin="miter" stroke-opacity="1" stroke-width="1" d="m 14,14 1.5,-1.5"/><path id="path4508" fill="#f2f2f2" fill-rule="evenodd" stroke="#1a1a1a" stroke-linecap="round" stroke-linejoin="miter" stroke-opacity="1" stroke-width="1" d="m 17,17 1.5,-1.5"/><path id="path4510" fill="#f2f2f2" fill-rule="evenodd" stroke="#1a1a1a" stroke-linecap="round" stroke-linejoin="miter" stroke-opacity="1" stroke-width="1" d="m 19.5,20.5 2,-2"/><path id="path4520" fill="#f2f2f2" fill-rule="evenodd" stroke="#1a1a1a" stroke-linecap="round" stroke-linejoin="miter" stroke-opacity="1" stroke-width="1" d="m 22.5,23.5 2,-2"/><path id="path4500" fill="#c8beb7" fill-rule="evenodd" stroke="#1a1a1a" stroke-linecap="round" stroke-linejoin="round" stroke-opacity="1" stroke-width="1" d="m 4.5,19.5 7.5,-7 8,8 -2,2 -5,-5 -7.5,3 z"/></svg>