<svg xmlns="http://www.w3.org/2000/svg" xmlns:svg="http://www.w3.org/2000/svg" xmlns:xlink="http://www.w3.org/1999/xlink" id="svg2" width="26" height="26" version="1.1"><defs id="defs4"><linearGradient id="linearGradient3775"><stop id="stop3777" offset="0" stop-color="#fff" stop-opacity="1"/><stop id="stop3779" offset="1" stop-color="#e1e1e1" stop-opacity="1"/></linearGradient><linearGradient id="linearGradient3767"><stop id="stop3769" offset="0" stop-color="#fff" stop-opacity="1"/><stop id="stop3771" offset="1" stop-color="#dcdcdc" stop-opacity="1"/></linearGradient><linearGradient id="linearGradient3781" x1="20" x2="2.5" y1="21" y2="1.5" gradientTransform="matrix(1,0,0,-1,0,1052.3622)" gradientUnits="userSpaceOnUse" xlink:href="#linearGradient3775"/><filter id="filter3899"><feGaussianBlur id="feGaussianBlur3901" stdDeviation=".375"/></filter><filter id="filter3952" width="1.24" height="1.24" x="-.12" y="-.12"><feGaussianBlur id="feGaussianBlur3954" stdDeviation=".35"/></filter><radialGradient id="radialGradient3975" cx="16.667" cy="6.067" r="3.5" fx="16.667" fy="6.067" gradientTransform="matrix(0.85714311,0.85714265,1.4285709,-1.4285716,-4.9523675,1039.7432)" gradientUnits="userSpaceOnUse" xlink:href="#linearGradient3767"/></defs><metadata id="metadata7"/><g id="layer1" transform="translate(0,-1026.3622)"><path id="path3889" fill="#000" fill-opacity="1" stroke="none" d="m 1.5,0.5 15,0 c 3,1 7,5 8,8 l 0,17 -23,0 z" filter="url(#filter3899)" opacity=".5" transform="matrix(1,0,0,-1,0,1052.3622)"/><path id="rect3761" fill="url(#linearGradient3781)" fill-opacity="1" stroke="none" d="m 2,1051.3622 14,0 c 3,-1 7,-5 8,-8 l 0,-16 -22,0 z"/><path id="path3783" fill="#373737" fill-opacity="1" stroke="none" d="m 16,1 c 1,0.5 7.5,7 8,8 C 22,8 19,8 17,8 17,6 17,3 16,1 Z" filter="url(#filter3952)" opacity=".5" transform="matrix(1,0,0,-1,0,1052.3622)"/><path id="path3765" fill="url(#radialGradient3975)" fill-opacity="1" stroke="none" d="m 16,1051.3622 c 3,-1 7,-5 8,-8 -1.5,1 -3,2 -6,2 0,3 -1,4.5 -2,6 z"/><g id="g4160" transform="translate(0.02695655,-12.99671)"><path id="rect3219" fill="#e62b0a" fill-opacity=".918" stroke="none" d="m 3,1041.3622 20,0 0,9 -20,0 z"/><path id="path3015" fill="none" stroke="#fff" stroke-dasharray="none" stroke-linecap="round" stroke-linejoin="miter" stroke-miterlimit="4" stroke-opacity="1" stroke-width=".8" d="m 5.5,1042.8622 0,6"/><path id="path3785" fill="none" stroke="#fff" stroke-dasharray="none" stroke-linecap="round" stroke-linejoin="miter" stroke-miterlimit="4" stroke-opacity="1" stroke-width=".8" d="m 5.5,1042.8622 2,0"/><path id="path3789" fill="none" stroke="#fff" stroke-dasharray="none" stroke-linecap="round" stroke-linejoin="miter" stroke-miterlimit="4" stroke-opacity="1" stroke-width=".8" d="m 5.5,1045.8622 2,0"/><path id="path3791" fill="none" stroke="#fff" stroke-dasharray="none" stroke-linecap="round" stroke-linejoin="miter" stroke-miterlimit="4" stroke-opacity="1" stroke-width=".8" d="m 7.5,1042.8622 c 1.5,0 1.5,3 0,3"/><path id="path3797" fill="none" stroke="#fff" stroke-dasharray="none" stroke-linecap="round" stroke-linejoin="round" stroke-miterlimit="4" stroke-opacity="1" stroke-width=".8" d="m 11.5,22.5 c 2.5,0 3,-0.5 3,-3 0,-2.5 -0.5,-3 -3,-3 z" transform="translate(0,1026.3622)"/><path id="path3804" fill="none" stroke="#fff" stroke-dasharray="none" stroke-linecap="round" stroke-linejoin="miter" stroke-miterlimit="4" stroke-opacity="1" stroke-width=".8" d="m 17.5,1042.8622 0,6"/><path id="path3808" fill="none" stroke="#fff" stroke-dasharray="none" stroke-linecap="round" stroke-linejoin="miter" stroke-miterlimit="4" stroke-opacity="1" stroke-width=".8" d="m 20.5,1042.8622 -3,0"/><path id="path3810" fill="none" stroke="#fff" stroke-dasharray="none" stroke-linecap="round" stroke-linejoin="miter" stroke-miterlimit="4" stroke-opacity="1" stroke-width=".8" d="m 17.5,1045.8622 2,0"/></g><path id="path27" fill="#fff" fill-rule="evenodd" stroke="#df421e" stroke-width=".875" d="m 9.374275,1039.8171 c 2.394032,0.02 -2.7791998,11.4687 -4.746817,9.9436 -1.704013,-2.318 10.913549,-4.7178 9.818698,-3.233 -2.231769,2.5825 -6.5936925,-6.7106 -5.0721538,-6.7106 z"/></g></svg>