<svg xmlns="http://www.w3.org/2000/svg" xmlns:svg="http://www.w3.org/2000/svg" xmlns:xlink="http://www.w3.org/1999/xlink" id="svg137" width="48" height="48" version="1.1"><metadata id="metadata141"/><defs id="defs75"><linearGradient id="a"><stop id="stop2" offset="0"/><stop id="stop4" offset="1" stop-opacity="0"/></linearGradient><radialGradient id="x" cx="4.993" cy="43.5" r="2.5" gradientTransform="matrix(2.0038,0,0,1.4,27.988,-17.4)" gradientUnits="userSpaceOnUse" xlink:href="#a"/><radialGradient id="y" cx="4.993" cy="43.5" r="2.5" gradientTransform="matrix(2.0038,0,0,1.4,-20.012,-104.4)" gradientUnits="userSpaceOnUse" xlink:href="#a"/><linearGradient id="s" x1="25.058" x2="25.058" y1="47.028" y2="39.999" gradientUnits="userSpaceOnUse"><stop id="stop9" offset="0" stop-opacity="0"/><stop id="stop11" offset=".5"/><stop id="stop13" offset="1" stop-opacity="0"/></linearGradient><radialGradient id="z" cx="7.936" cy="35.479" r="86.708" gradientTransform="matrix(-1.1734787,0,0,1.4015492,45.261728,-13.794568)" gradientUnits="userSpaceOnUse"><stop id="stop16" offset="0" stop-color="#fafafa"/><stop id="stop18" offset="1" stop-color="#bbb"/></radialGradient><radialGradient id="aa" cx="8.824" cy="3.756" r="37.752" gradientTransform="matrix(1.1829903,0,0,-1.1318356,-1.0341964,48.688746)" gradientUnits="userSpaceOnUse"><stop id="stop21" offset="0" stop-color="#a3a3a3"/><stop id="stop23" offset="1" stop-color="#8a8a8a"/></radialGradient><radialGradient id="ab" cx="8.144" cy="7.268" r="38.159" gradientTransform="matrix(2.2069575,0,0,2.106038,-9.3765568,-9.5943993)" gradientUnits="userSpaceOnUse"><stop id="stop26" offset="0" stop-color="#fff"/><stop id="stop28" offset="1" stop-color="#f8f8f8"/></radialGradient><radialGradient id="ac" cx="8" cy="17" r="8" gradientTransform="matrix(1,0,0,0.625,0,6.375)" gradientUnits="userSpaceOnUse"><stop id="stop31" offset="0"/><stop id="stop33" offset="1" stop-opacity="0"/></radialGradient><radialGradient id="p" cx="24" cy="22.137" r="19.5" gradientTransform="matrix(0.60452,0,0,0.62607,1.4828,0.98306)" gradientUnits="userSpaceOnUse"><stop id="stop36" offset="0" stop-color="#eeeeec"/><stop id="stop38" offset=".5" stop-color="#eeeeec"/><stop id="stop40" offset=".783" stop-color="#fff"/><stop id="stop42" offset="1" stop-color="#d3d7cf"/></radialGradient><linearGradient id="t" x1="6.055" x2="4.483" y1="6.312" y2="4.74" gradientTransform="matrix(1.209,0,0,1.2533,2.6919,1.7189)" gradientUnits="userSpaceOnUse"><stop id="stop45" offset="0" stop-color="#ef2929"/><stop id="stop47" offset="1" stop-color="#ef2929" stop-opacity="0"/></linearGradient><linearGradient id="u" x1="6.43" x2="8.122" y1="15.967" y2="14.275" gradientTransform="matrix(1.209,0,0,1.2533,2.6919,1.7189)" gradientUnits="userSpaceOnUse"><stop id="stop50" offset="0" stop-color="#ef2929"/><stop id="stop52" offset="1" stop-color="#ef2929" stop-opacity="0"/></linearGradient><linearGradient id="v" x1="15.291" x2="17.417" y1="6.444" y2="4.318" gradientTransform="matrix(1.209,0,0,1.2533,2.6919,1.7189)" gradientUnits="userSpaceOnUse"><stop id="stop55" offset="0" stop-color="#ef2929"/><stop id="stop57" offset="1" stop-color="#ef2929" stop-opacity="0"/></linearGradient><linearGradient id="w" x1="15.822" x2="14.372" y1="15.99" y2="14.54" gradientTransform="matrix(1.209,0,0,1.2533,2.6919,1.7189)" gradientUnits="userSpaceOnUse"><stop id="stop60" offset="0" stop-color="#ef2929"/><stop id="stop62" offset="1" stop-color="#ef2929" stop-opacity="0"/></linearGradient><radialGradient id="q" cx="7.593" cy="3.155" r="8.462" gradientTransform="matrix(2.724,0,0,2.6334,-13.56,-4.8312)" gradientUnits="userSpaceOnUse"><stop id="stop65" offset="0" stop-color="#fff"/><stop id="stop67" offset="1" stop-color="#fff" stop-opacity=".339"/></radialGradient><radialGradient id="r" cx="10.864" cy="16.149" r="8.714" gradientTransform="matrix(2.2102,0,0,2.1389,-12.102,-18.821)" gradientUnits="userSpaceOnUse"><stop id="stop70" offset="0" stop-color="#fff"/><stop id="stop72" offset="1" stop-color="#fff" stop-opacity="0"/></radialGradient></defs><g id="g83" opacity=".4" transform="matrix(1.2852246,0,0,1.4044987,-6.6688672,-17.86354)"><rect id="rect77" width="5" height="7" x="38" y="40" fill="url(#x)"/><rect id="rect79" width="5" height="7" x="-10" y="-47" fill="url(#y)" transform="scale(-1)"/><rect id="rect81" width="28" height="7" x="10" y="40" fill="url(#s)"/></g><path id="path85" fill="url(#z)" stroke="url(#aa)" stroke-linecap="round" stroke-linejoin="round" stroke-width="1.155" d="M 31.273952,0.6297 4.33625,0.63975008 c -0.7777282,0 -1.5196566,0.55547452 -1.5196566,1.25309202 L 2.9245151,44.223342 c 0,0.697618 0.6340531,1.263033 1.4117202,1.263033 H 44.133509 c 0.777729,0 1.411843,-0.56547 1.411721,-1.263033 V 1.8600701 c 0,-0.6965142 -0.633699,-1.22785758 -1.411476,-1.22785758 H 31.275403 Z" color="#000" display="block"/><path id="path87" fill="none" stroke="url(#ab)" stroke-linecap="round" stroke-linejoin="round" stroke-width="1.155" d="M 4.2134174,1.7293098 H 44.011912 c 0.136459,-0.00558 0.353101,0.0716 0.336215,0.2101669 L 44.25411,44.195693 c 0,0.0902 -0.08117,0.162823 -0.18199,0.162823 H 4.4164819 c -0.1008216,0 -0.18199,-0.07262 -0.18199,-0.162823 L 4.0321722,1.8925035 c 0,-0.090203 0.081167,-0.1628222 0.18199,-0.1628222 z" color="#000" display="block"/><path id="path131" fill="none" stroke="#babdb6" stroke-linecap="round" stroke-width="1.155" d="M 10.136,7.1841 H 38.219"/><path id="path133" fill="none" stroke="#babdb6" stroke-linecap="round" stroke-width="1.155" d="M 10.136,10.4613 H 38.219"/><g id="g3090" transform="matrix(0.82278183,0,0,0.83735947,-441.82226,-50.977823)"><path id="path3969" fill="#fff" stroke="#302b00" stroke-linecap="butt" stroke-linejoin="round" stroke-opacity="1" stroke-width="2.018" d="m 580.17373,91.836561 5.08859,17.999999 -17.3012,-6 -2.03543,-3.999999 10.17717,-10 z"/><path id="path3843" fill="#fce94f" stroke="none" d="m 559.81938,71.836555 -4.07087,4 20.35435,20.000006 c 0,-3 1.01772,-4 4.07087,-4 z"/><path id="path3843-7" fill="#edd400" stroke="none" d="m 555.74851,75.836548 -4.07087,4.000013 20.35435,20 c 0,-3 1.01772,-4 4.07087,-4 z"/><path id="path3843-5" fill="#c4a000" stroke="none" d="m 551.67764,79.836561 -4.07087,4 20.35435,19.999999 c 0,-3 1.01772,-3.999999 4.07087,-3.999999 z"/><path id="path3888" fill="none" stroke="#edd400" stroke-linecap="round" stroke-linejoin="miter" stroke-opacity="1" stroke-width="2.018" d="m 550.65993,81.636553 18.31891,18.00001"/><path id="path3888-5" fill="none" stroke="#fce94f" stroke-linecap="round" stroke-linejoin="miter" stroke-opacity="1" stroke-width="2.018" d="M 554.73079,77.636557 573.04971,95.63656"/><path id="path3843-5-6" fill="none" stroke="#302b00" stroke-linecap="butt" stroke-linejoin="round" stroke-opacity="1" stroke-width="2.018" d="m 559.81938,71.836558 -4.07087,4 20.35435,20.000003 c 0,-3 1.01772,-4 4.07087,-4 z"/><path id="path3843-5-6-2" fill="none" stroke="#302b00" stroke-linecap="butt" stroke-linejoin="round" stroke-opacity="1" stroke-width="2.018" d="m 555.74851,75.836558 -4.07087,4.000003 20.35435,20 c 0,-3 1.01772,-4 4.07087,-4 z"/><path id="path3843-5-6-9" fill="none" stroke="#302b00" stroke-linecap="butt" stroke-linejoin="round" stroke-opacity="1" stroke-width="2.018" d="m 551.67764,79.836561 -4.07087,4 20.35435,19.999999 c 0,-3 1.01772,-3.999999 4.07087,-3.999999 z"/><path id="path3971" fill="#302b00" stroke="#302b00" stroke-linecap="butt" stroke-linejoin="round" stroke-opacity="1" stroke-width="1.009" d="m 583.22688,100.83656 c -2.03543,0 -5.66928,2.51623 -6.1063,5 l 8.14174,4 -2.03544,-8 v 0"/></g></svg>