<svg xmlns="http://www.w3.org/2000/svg" xmlns:svg="http://www.w3.org/2000/svg" xmlns:xlink="http://www.w3.org/1999/xlink" id="svg2" width="26" height="26" version="1.1" viewBox="0 0 26 26"><metadata id="metadata100"/><defs id="defs4"><radialGradient id="e" cx="35.293" cy="20.494" r="16.956" gradientTransform="matrix(0,-0.84302,1.0202,0,-4.8963249,41.059418)" gradientUnits="userSpaceOnUse"><stop id="stop12-7" offset="0" stop-color="#73d216"/><stop id="stop14-2" offset="1" stop-color="#4e9a06"/></radialGradient><linearGradient id="linearGradient3049-9" x1="16" x2="12" y1="48" y2="60" gradientTransform="matrix(1.1100026,0,0,-1.6485227,72.919799,101.44846)" gradientUnits="userSpaceOnUse" xlink:href="#linearGradient4081-5"/><linearGradient id="linearGradient4081-5"><stop id="stop4083-6" offset="0" stop-color="#ef2929" stop-opacity="1"/><stop id="stop4085-2" offset="1" stop-color="#a40000" stop-opacity="1"/></linearGradient></defs><rect id="rect51" width="14.089" height="22.924" x="-20.594" y="1.495" fill="#fff" stroke="#545454" stroke-dasharray="none" stroke-linejoin="round" stroke-miterlimit="4" stroke-opacity="1" stroke-width=".977" transform="matrix(0,-1,1,0,0,0)"/><path id="path53" fill="none" stroke="#545454" stroke-dasharray="none" stroke-linejoin="round" stroke-miterlimit="4" stroke-opacity="1" stroke-width="1" d="m 0.98623924,11.082126 a 2.2240581,1.9589449 0 1 1 0.0137601,3.917871"/><g id="g3983"><rect id="rect73" width="6.059" height="4.066" x="-8.532" y="4.512" fill="#00c921" fill-opacity="1" stroke="#545454" stroke-dasharray="none" stroke-linejoin="round" stroke-miterlimit="4" stroke-opacity="1" stroke-width=".932" transform="matrix(0,-1,1,0,0,0)"/><rect id="rect73-5" width="6.059" height="4.066" x="-8.508" y="11.452" fill="#00c921" fill-opacity="1" stroke="#545454" stroke-dasharray="none" stroke-linejoin="round" stroke-miterlimit="4" stroke-opacity="1" stroke-width=".932" transform="matrix(0,-1,1,0,0,0)"/><rect id="rect73-56" width="6.059" height="4.066" x="-8.55" y="18.489" fill="#00c921" fill-opacity="1" stroke="#545454" stroke-dasharray="none" stroke-linejoin="round" stroke-miterlimit="4" stroke-opacity="1" stroke-width=".932" transform="matrix(0,-1,1,0,0,0)"/></g><rect id="rect73-0" width="6.059" height="4.066" x="-24.623" y="4.566" fill="#00c921" fill-opacity="1" stroke="#545454" stroke-dasharray="none" stroke-linejoin="round" stroke-miterlimit="4" stroke-opacity="1" stroke-width=".932" transform="matrix(0,-1,1,0,0,0)"/><rect id="rect73-5-4" width="6.059" height="4.066" x="-24.599" y="11.505" fill="#00c921" fill-opacity="1" stroke="#545454" stroke-dasharray="none" stroke-linejoin="round" stroke-miterlimit="4" stroke-opacity="1" stroke-width=".932" transform="matrix(0,-1,1,0,0,0)"/><rect id="rect73-56-9" width="6.059" height="4.066" x="-24.641" y="18.543" fill="#00c921" fill-opacity="1" stroke="#545454" stroke-dasharray="none" stroke-linejoin="round" stroke-miterlimit="4" stroke-opacity="1" stroke-width=".932" transform="matrix(0,-1,1,0,0,0)"/><rect id="rect73-5-4-8" width="6.059" height="4.066" x="-24.641" y="18.543" fill="#00c921" fill-opacity="1" stroke="#545454" stroke-dasharray="none" stroke-linejoin="round" stroke-miterlimit="4" stroke-opacity="1" stroke-width=".932" transform="rotate(-90)"/><g id="g5082" transform="matrix(0.54751388,0,0,0.5940288,-31.833316,-0.3420742)"><path id="rect3165" fill="url(#linearGradient3049-9)" fill-opacity="1" fill-rule="nonzero" stroke="none" stroke-width="2.2" d="m 90.679842,2.537097 13.320028,13.188181 -13.320028,13.188182 0,-6.594091 -13.320032,0 0,-13.188181 13.320032,0 z" display="inline" enable-background="accumulate" overflow="visible" visibility="visible" style="marker:none"/><path id="path4087" fill="none" stroke="#ef2929" stroke-linecap="butt" stroke-linejoin="round" stroke-opacity="1" stroke-width="2.705" d="m 92.899848,8.7293037 0,3.2970453 -13.320033,0 10e-7,9.891134" display="inline"/><path id="path4089" fill="none" stroke="#ef2929" stroke-linecap="butt" stroke-linejoin="miter" stroke-opacity="1" stroke-width="2.705" d="M 91.181321,6.4080669 102.3318,17.498128" display="inline"/><path id="path4091" fill="none" stroke="#ef2929" stroke-linecap="butt" stroke-linejoin="miter" stroke-opacity="1" stroke-width="1.353" d="M 90.679842,12.428233 92.899848,9.1311875" display="inline"/><path id="rect3165-1" fill="none" stroke="#340404" stroke-dasharray="none" stroke-dashoffset="0" stroke-linecap="round" stroke-linejoin="round" stroke-miterlimit="4" stroke-opacity="1" stroke-width="2.976" d="m 90.679843,2.5370951 13.320037,13.1881819 -13.320037,13.188181 0,-6.594091 -13.320032,0 0,-13.1881811 13.320032,0 z" display="inline" enable-background="accumulate" overflow="visible" visibility="visible" style="marker:none"/></g></svg>