<svg xmlns="http://www.w3.org/2000/svg" xmlns:svg="http://www.w3.org/2000/svg" xmlns:xlink="http://www.w3.org/1999/xlink" id="svg2" width="26" height="26" version="1.1" viewBox="0 0 26 26"><metadata id="metadata4"/><defs id="defs6"><radialGradient id="e-7" cx="35.293" cy="20.494" r="16.956" gradientTransform="matrix(0,-0.84302,1.0202,0,-4.8963249,41.059418)" gradientUnits="userSpaceOnUse"><stop id="stop12-7-6" offset="0" stop-color="#73d216"/><stop id="stop14-2-0" offset="1" stop-color="#4e9a06"/></radialGradient><linearGradient id="linearGradient2380"><stop id="stop2382" offset="0" stop-color="#b9cfe7" stop-opacity="1"/><stop id="stop2384" offset="1" stop-color="#729fcf" stop-opacity="1"/></linearGradient><linearGradient id="linearGradient3945"><stop id="stop3947" offset="0" stop-color="#8ae234" stop-opacity="1"/><stop id="stop3949" offset="1" stop-color="#73d216" stop-opacity="1"/></linearGradient><linearGradient id="linearGradient3963" x1="37.25" x2="39.75" y1="25.092" y2="40.925" gradientTransform="matrix(0.80000007,0,0,0.78431368,0.20000082,-30.098038)" gradientUnits="userSpaceOnUse" xlink:href="#linearGradient3916"/><linearGradient id="linearGradient3916"><stop id="stop3918" offset="0" stop-color="#8ae234" stop-opacity="1"/><stop id="stop3920" offset="1" stop-color="#4e9a06" stop-opacity="1"/></linearGradient><linearGradient id="linearGradient3773" x1="22.117" x2="17.329" y1="55.718" y2="21.311" gradientTransform="translate(-49,-37)" gradientUnits="userSpaceOnUse" xlink:href="#linearGradient3767"/><linearGradient id="linearGradient3767"><stop id="stop3769" offset="0" stop-color="#3465a4" stop-opacity="1"/><stop id="stop3771" offset="1" stop-color="#729fcf" stop-opacity="1"/></linearGradient><linearGradient id="linearGradient3783" x1="53.897" x2="47.502" y1="51.18" y2="21.837" gradientTransform="translate(-49,-37)" gradientUnits="userSpaceOnUse" xlink:href="#linearGradient3777"/><linearGradient id="linearGradient3777"><stop id="stop3779" offset="0" stop-color="#204a87" stop-opacity="1"/><stop id="stop3781" offset="1" stop-color="#3465a4" stop-opacity="1"/></linearGradient></defs><rect id="rect8" width="4.955" height="20.955" x="18.523" y=".523" fill="#e6e6e6" stroke="#666" stroke-linejoin="round" stroke-width="1.045" rx=".991" ry="1.103"/><rect id="rect10" width="4.955" height="20.955" x="10.523" y=".523" fill="#e6e6e6" stroke="#666" stroke-linejoin="round" stroke-width="1.045" rx=".991" ry="1.103"/><rect id="rect12" width="4.955" height="20.955" x="2.523" y=".523" fill="#e6e6e6" stroke="#666" stroke-linejoin="round" stroke-width="1.045" rx=".991" ry="1.103"/><rect id="rect14" width="25" height="14" x=".5" y="4" fill="#666" stroke="#1a1a1a" stroke-dasharray="none" stroke-linecap="butt" stroke-linejoin="miter" stroke-miterlimit="4" stroke-width="1" ry="0"/><path id="path18" fill="none" stroke="gray" stroke-linecap="square" stroke-linejoin="miter" stroke-width="1" d="M 1.5,17 V 4.9999999 h 23"/><path id="path20" fill="none" stroke="#4d4d4d" stroke-linecap="square" stroke-linejoin="miter" stroke-width="1" d="m 2.5,17 h 22 V 5.9999999"/><path id="path3001" fill="#333" stroke-width="1.21" d="m 3.815,11.50008 a 1.8150001,1.8150001 0 0 1 -3.6300001,0 1.8150001,1.8150001 0 1 1 3.6300001,0 z"/><g id="g4530" transform="translate(38)"><g id="g4526" transform="translate(-36,4)"><g id="g938" transform="matrix(0.22340335,0,0,0.22340335,20.731257,7.3073238)"><path id="path2993" fill="#729fcf" stroke="#0b1521" stroke-linecap="butt" stroke-linejoin="round" stroke-opacity="1" stroke-width="2" d="m -46,-20 34,6 24,-8 -30,-4 z"/><path id="path2995" fill="url(#linearGradient3783)" fill-opacity="1" stroke="#0b1521" stroke-linecap="butt" stroke-linejoin="round" stroke-opacity="1" stroke-width="2" d="M 12,-22 V 14 L -12,24 V -14 Z"/><path id="path3825" fill="url(#linearGradient3773)" fill-opacity="1" fill-rule="evenodd" stroke="#0b1521" stroke-dasharray="none" stroke-dashoffset="0" stroke-linecap="butt" stroke-linejoin="round" stroke-miterlimit="4" stroke-opacity="1" stroke-width="2" d="m -46,-20 34,6 v 38 l -34,-6 z" display="inline" enable-background="accumulate" overflow="visible" visibility="visible" style="marker:none"/><path id="path3765" fill="none" stroke="#729fcf" stroke-linecap="butt" stroke-linejoin="miter" stroke-opacity="1" stroke-width="2" d="m -44,-17.57228 0.0087,33.919116 30.008671,5.268799 -0.0087,-33.933614 z"/><path id="path3775" fill="none" stroke="#3465a4" stroke-linecap="butt" stroke-linejoin="miter" stroke-opacity="1" stroke-width="2" d="m -9.98757,-12.566167 -0.01226,33.535301 20.001105,-8.300993 3.6e-4,-31.867363 z"/></g></g></g><rect id="rect4521" width=".163" height="1.66" x="1.097" y="10.67" fill="#333" fill-opacity="1" stroke="#333" stroke-dasharray="none" stroke-dashoffset="0" stroke-miterlimit="4" stroke-opacity="1" stroke-width="1.965"/><g id="g1696" transform="matrix(0.60104033,0.3470108,-0.3470108,0.60104033,39.099158,16.240285)"><g id="g3959" stroke-dasharray="none" stroke-miterlimit="4" stroke-width="1.329" display="inline" transform="matrix(0.93749994,0,0,0.93749994,-56.504393,25.862713)"><path id="path3343-0" fill="url(#linearGradient3963)" fill-opacity="1" fill-rule="evenodd" stroke="#172a04" stroke-dasharray="none" stroke-linecap="butt" stroke-linejoin="round" stroke-miterlimit="4" stroke-opacity="1" stroke-width="2" d="m 35,-13 v 4 c -10,0 -17,2 -23,7 l 5,7 c 5.533107,-3.2969243 11.304703,-5.93138137 18,-6 v 4 l 14,-8 z" display="inline"/><path id="path3343-2-9" fill="none" stroke="#8ae234" stroke-dasharray="none" stroke-linecap="butt" stroke-linejoin="miter" stroke-miterlimit="4" stroke-opacity="1" stroke-width="2" d="m 37,-9.5822304 -0.03453,2.4959137 C 24,-7 20,-5 14.742324,-1.6214805 l 2.823897,3.9746169 C 20.224424,0.91368325 26,-3 37,-3 v 2.5822304 L 45,-5 Z" display="inline"/></g></g></svg>