<svg xmlns="http://www.w3.org/2000/svg" xmlns:svg="http://www.w3.org/2000/svg" xmlns:xlink="http://www.w3.org/1999/xlink" id="svg2568" width="64" height="64" version="1.1"><defs id="defs2570"><linearGradient id="linearGradient3805"><stop id="stop3807" offset="0" stop-color="#3465a4" stop-opacity="1"/><stop id="stop3809" offset="1" stop-color="#3465a4" stop-opacity="0"/></linearGradient><linearGradient id="linearGradient3864"><stop id="stop3866" offset="0" stop-color="#71b2f8" stop-opacity="1"/><stop id="stop3868" offset="1" stop-color="#002795" stop-opacity="1"/></linearGradient><linearGradient id="linearGradient3593"><stop id="stop3595" offset="0" stop-color="#c8e0f9" stop-opacity="1"/><stop id="stop3597" offset="1" stop-color="#637dca" stop-opacity="1"/></linearGradient><radialGradient id="radialGradient3090" cx="46.534" cy="26.282" r="19.571" fx="46.534" fy="26.282" gradientTransform="matrix(1.1486088,1.8477617,-3.056673,1.900094,73.257745,-112.1016)" gradientUnits="userSpaceOnUse" xlink:href="#linearGradient3143"/><linearGradient id="linearGradient3143"><stop id="stop3145" offset="0" stop-color="#729fcf" stop-opacity="1"/><stop id="stop3147" offset="1" stop-color="#3465a4" stop-opacity="1"/></linearGradient><radialGradient id="radialGradient3165" cx="48.646" cy="25.149" r="19.571" fx="48.646" fy="25.149" gradientTransform="matrix(0.63294029,0.93089132,-0.82695376,0.56227002,38.653022,-34.275496)" gradientUnits="userSpaceOnUse" xlink:href="#linearGradient3143-7"/><linearGradient id="linearGradient3143-7"><stop id="stop3145-0" offset="0" stop-color="#729fcf" stop-opacity="1"/><stop id="stop3147-9" offset="1" stop-color="#204a87" stop-opacity="1"/></linearGradient><radialGradient id="radialGradient3023" cx="46.534" cy="26.282" r="19.571" fx="46.534" fy="26.282" gradientTransform="matrix(1.1751823,1.8905104,-3.1273904,1.9440534,61.507183,-125.06637)" gradientUnits="userSpaceOnUse" xlink:href="#linearGradient3143"/><radialGradient id="radialGradient3811" cx="22.626" cy="32.827" r="13" fx="22.626" fy="32.827" gradientTransform="matrix(0.22188004,-0.16641004,0.69230766,0.92307688,5.0114835,5.6951056)" gradientUnits="userSpaceOnUse" xlink:href="#linearGradient3805"/><linearGradient id="linearGradient863" x1="1.826" x2="61.826" y1="32.174" y2="32.174" gradientUnits="userSpaceOnUse" xlink:href="#linearGradient3143-7"/></defs><metadata id="metadata2573"/><g id="layer1"><path id="rect2233" fill="none" fill-opacity="1" stroke="url(#linearGradient863)" stroke-dasharray="none" stroke-miterlimit="4" stroke-width="2" d="m 1.82608,2.173907 v 60.000001 h 60 V 2.173907 Z M 6,6 H 58 V 58 H 6 Z"/><path id="path3550-3" fill="url(#radialGradient3023)" fill-opacity="1" fill-rule="evenodd" stroke="#0b1521" stroke-dasharray="none" stroke-dashoffset="0" stroke-linecap="butt" stroke-linejoin="miter" stroke-miterlimit="4" stroke-opacity="1" stroke-width="1.998" d="M 41,6 C 32.223986,6 24.839523,11.945441 22.65625,20.03125 12.323305,20.217406 4,28.622594 4,39 4,49.49401 12.50599,58 23,58 31.776014,58 39.160477,52.054559 41.34375,43.96875 51.676695,43.782594 60,35.377406 60,25 60,14.50599 51.49401,6 41,6 Z" display="inline" enable-background="accumulate" overflow="visible" visibility="visible" style="marker:none"/><path id="path3027" fill="none" stroke="url(#radialGradient3811)" stroke-linecap="butt" stroke-linejoin="miter" stroke-opacity="1" stroke-width="10" d="m 22.757796,23.231521 c 5.79937,2.615469 10.296259,7.638903 16,20"/><path id="path3550-3-1" fill="none" stroke="#729fcf" stroke-dasharray="none" stroke-dashoffset="0" stroke-linecap="butt" stroke-linejoin="miter" stroke-miterlimit="4" stroke-opacity="1" stroke-width="1.998" d="M 41,8 C 32.610943,8 25.671219,14.071076 24.28125,22.0625 23.859709,22.031199 23.429541,22 23,22 13.610558,22 6,29.61056 6,39 6,48.38944 13.610558,56 23,56 31.389057,56 38.328781,49.928924 39.71875,41.9375 40.140291,41.968801 40.570459,42 41,42 50.389442,42 58,34.38944 58,25 58,15.61056 50.389442,8 41,8 Z" display="inline" enable-background="accumulate" overflow="visible" visibility="visible" style="marker:none"/><path id="path3042" fill="none" stroke="#fff" stroke-linecap="round" stroke-linejoin="round" stroke-opacity="1" stroke-width="2.609" d="m 49.199988,96.790287 47.622694,0.04192 -0.08384,-47.055109"/></g></svg>