<svg xmlns="http://www.w3.org/2000/svg" xmlns:svg="http://www.w3.org/2000/svg" xmlns:xlink="http://www.w3.org/1999/xlink" id="svg2" width="64" height="64" version="1.1"><metadata id="metadata28"/><defs id="defs4"><linearGradient id="linearGradient3866" x1="81.898" x2="3.046" y1="17.729" y2="17.729" gradientTransform="matrix(0.73873,0,0,1.3537,0,2.0000917)" gradientUnits="userSpaceOnUse"><stop id="stop3868" offset="0" stop-color="#cc8000"/><stop id="stop3870" offset="1" stop-color="#ffed00"/></linearGradient><linearGradient id="c" x1="81.898" x2="3.046" y1="17.729" y2="17.729" gradientTransform="matrix(0.73873,0,0,1.3537,0,2.0000917)" gradientUnits="userSpaceOnUse"><stop id="stop7" offset="0" stop-color="#cc8000"/><stop id="stop9" offset="1" stop-color="#ffed00"/></linearGradient><linearGradient id="d" x1="34.29" x2="48.26" y1="33.612" y2="1.847" gradientTransform="matrix(1.0000188,0,0,1.0000188,0,2.0000917)" gradientUnits="userSpaceOnUse"><stop id="stop12" offset="0" stop-color="#af7d00"/><stop id="stop14" offset="1" stop-color="#ffed00"/></linearGradient><linearGradient id="linearGradient2993" x1="34.29" x2="48.26" y1="33.612" y2="1.847" gradientTransform="matrix(1.0000188,0,0,1.0000188,0,10.000092)" gradientUnits="userSpaceOnUse" xlink:href="#d"/><linearGradient id="linearGradient2997" x1="81.898" x2="3.046" y1="17.729" y2="17.729" gradientTransform="matrix(0.73873,0,0,1.3537,0,10.000092)" gradientUnits="userSpaceOnUse" xlink:href="#c"/><linearGradient id="linearGradient2997-1" x1="81.898" x2="3.046" y1="17.729" y2="17.729" gradientTransform="matrix(0.73873,0,0,1.3537,0,10.000092)" gradientUnits="userSpaceOnUse" xlink:href="#c-7"/><linearGradient id="c-7" x1="81.898" x2="3.046" y1="17.729" y2="17.729" gradientTransform="matrix(0.73873,0,0,1.3537,0,2.0000917)" gradientUnits="userSpaceOnUse"><stop id="stop7-4" offset="0" stop-color="#cc8000"/><stop id="stop9-0" offset="1" stop-color="#ffed00"/></linearGradient><linearGradient id="linearGradient2993-9" x1="34.29" x2="48.26" y1="33.612" y2="1.847" gradientTransform="matrix(1.0000188,0,0,1.0000188,0,10.000092)" gradientUnits="userSpaceOnUse" xlink:href="#d-4"/><linearGradient id="d-4" x1="34.29" x2="48.26" y1="33.612" y2="1.847" gradientTransform="matrix(1.0000188,0,0,1.0000188,0,2.0000917)" gradientUnits="userSpaceOnUse"><stop id="stop12-8" offset="0" stop-color="#af7d00"/><stop id="stop14-8" offset="1" stop-color="#ffed00"/></linearGradient><linearGradient id="linearGradient3027" x1="34.29" x2="48.26" y1="33.612" y2="1.847" gradientTransform="matrix(1.0000188,0,0,1.0000188,0,10.000092)" gradientUnits="userSpaceOnUse" xlink:href="#d-4"/><linearGradient id="linearGradient2997-17" x1="81.898" x2="3.046" y1="17.729" y2="17.729" gradientTransform="matrix(0.73873,0,0,1.3537,0,10.000092)" gradientUnits="userSpaceOnUse" xlink:href="#c-1"/><linearGradient id="c-1" x1="81.898" x2="3.046" y1="17.729" y2="17.729" gradientTransform="matrix(0.73873,0,0,1.3537,0,2.0000917)" gradientUnits="userSpaceOnUse"><stop id="stop7-1" offset="0" stop-color="#cc8000"/><stop id="stop9-5" offset="1" stop-color="#ffed00"/></linearGradient><linearGradient id="linearGradient2993-2" x1="34.29" x2="48.26" y1="33.612" y2="1.847" gradientTransform="matrix(1.0000188,0,0,1.0000188,0,10.000092)" gradientUnits="userSpaceOnUse" xlink:href="#d-7"/><linearGradient id="d-7" x1="34.29" x2="48.26" y1="33.612" y2="1.847" gradientTransform="matrix(1.0000188,0,0,1.0000188,0,2.0000917)" gradientUnits="userSpaceOnUse"><stop id="stop12-6" offset="0" stop-color="#af7d00"/><stop id="stop14-1" offset="1" stop-color="#ffed00"/></linearGradient><linearGradient id="linearGradient3027-4" x1="34.29" x2="48.26" y1="33.612" y2="1.847" gradientTransform="matrix(1.0000188,0,0,1.0000188,0,10.000092)" gradientUnits="userSpaceOnUse" xlink:href="#d-7"/><linearGradient id="linearGradient3092" x1="34.29" x2="48.26" y1="33.612" y2="1.847" gradientTransform="matrix(0.19457938,0,0,0.19457938,11.929163,22.541331)" gradientUnits="userSpaceOnUse" xlink:href="#d-4"/><linearGradient id="linearGradient3096" x1="81.898" x2="3.046" y1="17.729" y2="17.729" gradientTransform="matrix(0.14373892,0,0,0.26339715,11.929163,22.541331)" gradientUnits="userSpaceOnUse" xlink:href="#d-7"/><linearGradient id="linearGradient3877" x1="81.898" x2="3.046" y1="17.729" y2="17.729" gradientTransform="matrix(0.14373892,0,0,0.26339715,11.929163,22.541331)" gradientUnits="userSpaceOnUse" xlink:href="#d-7"/><linearGradient id="linearGradient3879" x1="34.29" x2="48.26" y1="33.612" y2="1.847" gradientTransform="matrix(0.19457938,0,0,0.19457938,11.929163,22.541331)" gradientUnits="userSpaceOnUse" xlink:href="#d-4"/><linearGradient id="linearGradient3882" x1="34.29" x2="48.26" y1="33.612" y2="1.847" gradientTransform="matrix(0.36914696,0,0,0.36914696,28.45164,18.138191)" gradientUnits="userSpaceOnUse" xlink:href="#d-7"/><linearGradient id="linearGradient3886" x1="81.898" x2="3.046" y1="17.729" y2="17.729" gradientTransform="matrix(0.27269481,0,0,0.49970485,28.45164,18.138191)" gradientUnits="userSpaceOnUse" xlink:href="#d"/><linearGradient id="linearGradient2380"><stop id="stop2382" offset="0" stop-color="#b9cfe7" stop-opacity="1"/><stop id="stop2384" offset="1" stop-color="#729fcf" stop-opacity="1"/></linearGradient><linearGradient id="linearGradient3945"><stop id="stop3947" offset="0" stop-color="#8ae234" stop-opacity="1"/><stop id="stop3949" offset="1" stop-color="#73d216" stop-opacity="1"/></linearGradient><linearGradient id="linearGradient3963" x1="37.25" x2="39.75" y1="25.092" y2="40.925" gradientTransform="matrix(0.80000007,0,0,0.78431368,0.20000082,-30.098038)" gradientUnits="userSpaceOnUse" xlink:href="#linearGradient3916"/><linearGradient id="linearGradient3916"><stop id="stop3918" offset="0" stop-color="#8ae234" stop-opacity="1"/><stop id="stop3920" offset="1" stop-color="#4e9a06" stop-opacity="1"/></linearGradient></defs><g id="g4605" transform="matrix(1.0883385,0,0,1.0883385,-4.3228622,0.6748723)"><g id="g3000" transform="translate(2,2)"><path id="path20" fill="url(#linearGradient2997)" stroke="#5e3800" stroke-linejoin="round" stroke-width="2" d="M 58.750458,35.75085 42.000494,45.375657 25.25053,55.001818 3.7497935,40.750064 3.2500426,28.000917 c 0,0 10.9169524,-5.000026 16.3746894,-7.500174 5.458328,-2.500014 16.374689,-7.500175 16.374689,-7.500175 l 23.49974,12.250173 -0.750033,10.500109 z" color="#000"/><path id="path22" fill="none" stroke="#5e3800" stroke-linejoin="round" stroke-width="2" d="m 3.8750082,28.000917 c 0,0 7.0559798,4.544642 10.5837848,6.817098 3.528027,2.272321 10.583785,6.817098 10.583785,6.817098 l -0.167892,13.11627" color="#000"/><path id="path24" fill="url(#linearGradient2993)" stroke="#5e3800" stroke-linejoin="round" stroke-width="2" d="m 25.271215,41.686824 c 0,0 11.326208,-5.520253 16.989312,-8.280447 5.663104,-2.760194 16.989313,-8.280448 16.989313,-8.280448" color="#000"/></g><g id="g3872" transform="matrix(-1,0,0,1,36.711865,3.220339)"><path id="path20-4" fill="url(#linearGradient3877)" fill-opacity="1" stroke="#5e3800" stroke-linejoin="round" stroke-width=".389" d="m 23.360576,27.551803 -3.259137,1.872754 -3.259136,1.873017 -4.183521,-2.773045 -0.09724,-2.480674 c 0,0 2.124174,-0.972884 3.186117,-1.459352 1.062058,-0.486442 3.186117,-1.459352 3.186117,-1.459352 l 4.572479,2.383586 -0.145938,2.043066 z" color="#000"/><path id="path22-5" fill="none" stroke="#5e3800" stroke-linejoin="round" stroke-width=".389" d="m 12.683146,26.043855 c 0,0 1.372922,0.884277 2.059347,1.326441 0.686468,0.442139 2.059348,1.326442 2.059348,1.326442 l -0.03267,2.552108" color="#000"/><path id="path24-5" fill="url(#linearGradient3879)" stroke="#5e3800" stroke-linejoin="round" stroke-width=".389" d="m 16.846328,28.7068 c 0,0 2.203805,-1.074107 3.305707,-1.611174 1.101903,-0.537067 3.305708,-1.611174 3.305708,-1.611174" color="#000"/></g><path id="path20-2" fill="url(#linearGradient3886)" fill-opacity="1" stroke="#5e3800" stroke-dasharray="none" stroke-linejoin="round" stroke-miterlimit="4" stroke-width=".738" d="m 50.138785,27.643826 -6.183082,3.552902 -6.183082,3.553401 -7.936782,-5.260893 -0.184478,-4.70622 c 0,0 4.029884,-1.84571 6.044553,-2.768614 2.014887,-0.922856 6.044553,-2.768615 6.044553,-2.768615 l 8.674694,4.522029 -0.276867,3.87601 z" color="#000"/><path id="path22-2" fill="none" stroke="#5e3800" stroke-linejoin="round" stroke-width=".738" d="m 29.882061,24.783016 c 0,0 2.604644,1.677609 3.906898,2.516464 1.302336,0.838804 3.906899,2.516463 3.906899,2.516463 l -0.06198,4.841741" color="#000"/><path id="path24-1" fill="url(#linearGradient3882)" stroke="#5e3800" stroke-linejoin="round" stroke-width=".738" d="m 37.780257,29.835032 c 0,0 4.180956,-2.037746 6.271435,-3.056644 2.090478,-1.018898 6.271435,-3.056645 6.271435,-3.056645" color="#000"/></g><g id="g1696" transform="matrix(0.91434748,0.64023302,-0.64023302,0.91434748,57.95034,8.3446199)"><g id="g3959" stroke-dasharray="none" stroke-miterlimit="4" stroke-width="1.329" display="inline" transform="matrix(0.93749994,0,0,0.93749994,-56.504393,25.862713)"><path id="path3343-0" fill="url(#linearGradient3963)" fill-opacity="1" fill-rule="evenodd" stroke="#172a04" stroke-dasharray="none" stroke-linecap="butt" stroke-linejoin="round" stroke-miterlimit="4" stroke-opacity="1" stroke-width="2" d="m 35,-13 v 4 c -10,0 -17,2 -23,7 l 5,7 c 5.533107,-3.2969243 11.304703,-5.93138137 18,-6 v 4 l 14,-8 z" display="inline"/><path id="path3343-2-9" fill="none" stroke="#8ae234" stroke-dasharray="none" stroke-linecap="butt" stroke-linejoin="miter" stroke-miterlimit="4" stroke-opacity="1" stroke-width="2" d="m 37,-9.5822304 -0.03453,2.4959137 C 24,-7 20,-5 14.742324,-1.6214805 l 2.823897,3.9746169 C 20.224424,0.91368325 26,-3 37,-3 v 2.5822304 L 45,-5 Z" display="inline"/></g></g></svg>