<svg xmlns="http://www.w3.org/2000/svg" xmlns:svg="http://www.w3.org/2000/svg" xmlns:xlink="http://www.w3.org/1999/xlink" id="svg2" width="26" height="26" version="1.1" viewBox="0 0 26 26"><metadata id="metadata100"/><defs id="defs4"><radialGradient id="e" cx="35.293" cy="20.494" r="16.956" gradientTransform="matrix(0,-0.84302,1.0202,0,-4.8963249,41.059418)" gradientUnits="userSpaceOnUse"><stop id="stop12-7" offset="0" stop-color="#73d216"/><stop id="stop14-2" offset="1" stop-color="#4e9a06"/></radialGradient><linearGradient id="linearGradient2380"><stop id="stop2382" offset="0" stop-color="#b9cfe7" stop-opacity="1"/><stop id="stop2384" offset="1" stop-color="#729fcf" stop-opacity="1"/></linearGradient><linearGradient id="linearGradient3945"><stop id="stop3947" offset="0" stop-color="#8ae234" stop-opacity="1"/><stop id="stop3949" offset="1" stop-color="#73d216" stop-opacity="1"/></linearGradient><linearGradient id="linearGradient3963" x1="37.25" x2="39.75" y1="25.092" y2="40.925" gradientTransform="matrix(0.80000007,0,0,0.78431368,0.20000082,-30.098038)" gradientUnits="userSpaceOnUse" xlink:href="#linearGradient3916"/><linearGradient id="linearGradient3916"><stop id="stop3918" offset="0" stop-color="#8ae234" stop-opacity="1"/><stop id="stop3920" offset="1" stop-color="#4e9a06" stop-opacity="1"/></linearGradient><radialGradient id="radialGradient3975" cx="17.25" cy="6.417" r="3.5" fx="17.25" fy="6.417" gradientTransform="matrix(0.85714311,0.85714265,1.4285709,-1.4285716,-4.708989,13.581857)" gradientUnits="userSpaceOnUse" xlink:href="#linearGradient3767"/><linearGradient id="linearGradient3767"><stop id="stop3769" offset="0" stop-color="#fff" stop-opacity="1"/><stop id="stop3771" offset="1" stop-color="#dcdcdc" stop-opacity="1"/></linearGradient><filter id="filter3952" width="1.24" height="1.24" x="-.12" y="-.12"><feGaussianBlur id="feGaussianBlur3954" stdDeviation=".35"/></filter><linearGradient id="linearGradient3781" x1="20" x2="1" y1="21" y2="1" gradientTransform="matrix(1,0,0,-1,0.243378,26.200857)" gradientUnits="userSpaceOnUse" xlink:href="#linearGradient3775"/><linearGradient id="linearGradient3775"><stop id="stop3777" offset="0" stop-color="#fff" stop-opacity="1"/><stop id="stop3779" offset="1" stop-color="#e1e1e1" stop-opacity="1"/></linearGradient><filter id="filter3899"><feGaussianBlur id="feGaussianBlur3901" stdDeviation=".375"/></filter></defs><path id="path3889" fill="#000" fill-opacity="1" stroke="none" d="m 0.5,0.5 h 17 c 3,1 7,5 8,8 v 17 h -25 z" filter="url(#filter3899)" opacity=".9" transform="matrix(1,0,0,-1,0.243378,26.200857)"/><path id="rect3761" fill="url(#linearGradient3781)" fill-opacity="1" stroke="none" d="m 1.243378,25.200857 h 16 c 3,-1 7,-5 8,-8 V 1.2008573 h -24 z"/><circle id="path3903" cx="2.743" cy="-23.701" r=".75" fill="#454545" fill-opacity="1" stroke="none" opacity="1" transform="scale(1,-1)"/><circle id="path3906" cx="2.743" cy="-20.701" r=".75" fill="#454545" fill-opacity="1" stroke="none" opacity="1" transform="scale(1,-1)"/><circle id="path3908" cx="2.743" cy="-17.701" r=".75" fill="#454545" fill-opacity="1" stroke="none" opacity="1" transform="scale(1,-1)"/><circle id="path3910" cx="2.743" cy="-14.701" r=".75" fill="#454545" fill-opacity="1" stroke="none" opacity="1" transform="scale(1,-1)"/><circle id="path3912" cx="2.743" cy="-11.701" r=".75" fill="#454545" fill-opacity="1" stroke="none" opacity="1" transform="scale(1,-1)"/><circle id="path3914" cx="2.743" cy="-8.701" r=".75" fill="#454545" fill-opacity="1" stroke="none" opacity="1" transform="scale(1,-1)"/><circle id="path3916" cx="2.743" cy="-5.701" r=".75" fill="#454545" fill-opacity="1" stroke="none" opacity="1" transform="scale(1,-1)"/><circle id="path3918" cx="2.743" cy="-2.701" r=".75" fill="#454545" fill-opacity="1" stroke="none" opacity="1" transform="scale(1,-1)"/><path id="path307-5" fill="none" stroke="#454545" stroke-dasharray="none" stroke-linecap="round" stroke-linejoin="round" stroke-miterlimit="4" stroke-opacity="1" stroke-width=".8" d="m 6.743378,23.700857 3,-3 v -5" color="#000" display="block"/><path id="path309-3" fill="none" stroke="#454545" stroke-dasharray="none" stroke-linecap="round" stroke-linejoin="round" stroke-miterlimit="4" stroke-opacity="1" stroke-width=".8" d="m 12.743378,15.700857 v 6.5 l -1.5,1.5" color="#000" display="block"/><path id="path311-3" fill="none" stroke="#454545" stroke-dasharray="none" stroke-linecap="round" stroke-linejoin="round" stroke-miterlimit="4" stroke-opacity="1" stroke-width=".8" d="m 15.743378,15.700857 v 8" color="#000" display="block"/><path id="path313-8" fill="none" stroke="#454545" stroke-dasharray="none" stroke-linecap="round" stroke-linejoin="round" stroke-miterlimit="4" stroke-opacity="1" stroke-width=".8" d="m 18.743378,15.700857 v 6.5 l 1,1" color="#000" display="block"/><path id="path331-1" fill="none" stroke="#454545" stroke-dasharray="none" stroke-linecap="round" stroke-linejoin="round" stroke-miterlimit="4" stroke-opacity="1" stroke-width=".8" d="m 9.743378,7.2008573 v -2.5 l -2,-2 h -3" color="#000" display="block"/><path id="path333-9" fill="none" stroke="#454545" stroke-dasharray="none" stroke-linecap="round" stroke-linejoin="round" stroke-miterlimit="4" stroke-opacity="1" stroke-width=".8" d="m 12.743378,7.2008573 v -4.5" color="#000" display="block"/><path id="path335-0" fill="none" stroke="#454545" stroke-dasharray="none" stroke-linecap="round" stroke-linejoin="round" stroke-miterlimit="4" stroke-opacity="1" stroke-width=".8" d="m 15.743378,7.2008573 v -3 l 1.5,-1.5" color="#000" display="block"/><path id="path337-9" fill="none" stroke="#454545" stroke-dasharray="none" stroke-linecap="round" stroke-linejoin="round" stroke-miterlimit="4" stroke-opacity="1" stroke-width=".8" d="m 18.743378,7.2008573 v -2.5 l 2,-2" color="#000" display="block"/><path id="path339-8" fill="#454545" fill-opacity="1" stroke="#454545" stroke-dasharray="none" stroke-linecap="round" stroke-linejoin="round" stroke-miterlimit="4" stroke-opacity="1" stroke-width=".8" d="m 4.743378,21.700857 2,-2 V 6.2008573 l -1,-1 h -1 z" color="#000" display="block"/><path id="path341-8" fill="#454545" fill-opacity="1" stroke="#454545" stroke-dasharray="none" stroke-linecap="round" stroke-linejoin="round" stroke-miterlimit="4" stroke-opacity="1" stroke-width=".8" d="m 23.743378,3.2008573 -2,2 V 19.700857 l 2,-1 z" color="#000" display="block"/><path id="path315-3" fill="none" stroke="#454545" stroke-dasharray="none" stroke-linecap="round" stroke-linejoin="round" stroke-miterlimit="4" stroke-opacity="1" stroke-width="1.6" d="m 9.743378,15.506857 v -1.306" color="#000" display="block"/><path id="path317-7" fill="none" stroke="#454545" stroke-dasharray="none" stroke-linecap="round" stroke-linejoin="round" stroke-miterlimit="4" stroke-opacity="1" stroke-width="1.6" d="m 12.743378,15.506857 v -1.306" color="#000" display="block"/><path id="path319-9" fill="none" stroke="#454545" stroke-dasharray="none" stroke-linecap="round" stroke-linejoin="round" stroke-miterlimit="4" stroke-opacity="1" stroke-width="1.6" d="m 15.743378,15.506857 v -1.306" color="#000" display="block"/><path id="path321-3" fill="none" stroke="#454545" stroke-dasharray="none" stroke-linecap="round" stroke-linejoin="round" stroke-miterlimit="4" stroke-opacity="1" stroke-width="1.6" d="m 18.743378,15.506857 v -1.306" color="#000" display="block"/><path id="path323-7" fill="none" stroke="#454545" stroke-dasharray="none" stroke-linecap="round" stroke-linejoin="round" stroke-miterlimit="4" stroke-opacity="1" stroke-width="1.6" d="m 18.743378,9.2008573 v -1.306" color="#000" display="block"/><path id="path325-8" fill="none" stroke="#454545" stroke-dasharray="none" stroke-linecap="round" stroke-linejoin="round" stroke-miterlimit="4" stroke-opacity="1" stroke-width="1.6" d="m 15.743378,9.2008573 v -1.306" color="#000" display="block"/><path id="path327-7" fill="none" stroke="#454545" stroke-dasharray="none" stroke-linecap="round" stroke-linejoin="round" stroke-miterlimit="4" stroke-opacity="1" stroke-width="1.6" d="m 12.743378,9.2008573 v -1.306" color="#000" display="block"/><path id="path329-4" fill="none" stroke="#454545" stroke-dasharray="none" stroke-linecap="round" stroke-linejoin="round" stroke-miterlimit="4" stroke-opacity="1" stroke-width="1.6" d="m 9.743378,9.2008573 v -1.306" color="#000" display="block"/><path id="path3783" fill="#373737" fill-opacity="1" stroke="none" d="m 17,1 c 1,0.5 7.5,7 8,8 C 23,8 20,8 18,8 18,6 18,3 17,1 Z" filter="url(#filter3952)" opacity=".5" transform="matrix(1,0,0,-1,0.243378,26.200857)"/><path id="path3765" fill="url(#radialGradient3975)" fill-opacity="1" stroke="none" d="m 17.243378,25.200857 c 3,-1 7,-5 8,-8 -1.5,1 -3,2 -6,2 0,3 -1,4.5 -2,6 z"/><g id="g1696" transform="matrix(0.49307434,0.34525439,-0.34525439,0.49307434,31.339022,4.4974096)"><g id="g3959" stroke-dasharray="none" stroke-miterlimit="4" stroke-width="1.329" display="inline" transform="matrix(0.93749994,0,0,0.93749994,-56.504393,25.862713)"><path id="path3343-0" fill="url(#linearGradient3963)" fill-opacity="1" fill-rule="evenodd" stroke="#172a04" stroke-dasharray="none" stroke-linecap="butt" stroke-linejoin="round" stroke-miterlimit="4" stroke-opacity="1" stroke-width="2" d="m 35,-13 v 4 c -10,0 -17,2 -23,7 l 5,7 c 5.533107,-3.2969243 11.304703,-5.93138137 18,-6 v 4 l 14,-8 z" display="inline"/><path id="path3343-2-9" fill="none" stroke="#8ae234" stroke-dasharray="none" stroke-linecap="butt" stroke-linejoin="miter" stroke-miterlimit="4" stroke-opacity="1" stroke-width="2" d="m 37,-9.5822304 -0.03453,2.4959137 C 24,-7 20,-5 14.742324,-1.6214805 l 2.823897,3.9746169 C 20.224424,0.91368325 26,-3 37,-3 v 2.5822304 L 45,-5 Z" display="inline"/></g></g></svg>