<svg xmlns="http://www.w3.org/2000/svg" xmlns:svg="http://www.w3.org/2000/svg" xmlns:xlink="http://www.w3.org/1999/xlink" id="svg11300" width="51.2" height="51.2" version="1.1"><defs id="defs3"><linearGradient id="linearGradient2250"><stop id="stop2252" offset="0" stop-color="#fff" stop-opacity="1"/><stop id="stop2254" offset="1" stop-color="#fff" stop-opacity="0"/></linearGradient><linearGradient id="linearGradient2265"><stop id="stop2267" offset="0" stop-color="#000" stop-opacity="1"/><stop id="stop2269" offset="1" stop-color="#000" stop-opacity="0"/></linearGradient><linearGradient id="linearGradient2257"><stop id="stop2259" offset="0" stop-color="#fff" stop-opacity="1"/><stop id="stop2261" offset="1" stop-color="#fff" stop-opacity="0"/></linearGradient><linearGradient id="linearGradient3087"><stop id="stop3089" offset="0" stop-color="#3465a4" stop-opacity="1"/><stop id="stop3095" offset="0" stop-color="#9fbce1" stop-opacity="1"/><stop id="stop2242" offset="0" stop-color="#6b95ca" stop-opacity="1"/><stop id="stop2244" offset=".75" stop-color="#3d6aa5" stop-opacity="1"/><stop id="stop3091" offset="1" stop-color="#386eb4" stop-opacity="1"/></linearGradient><linearGradient id="linearGradient3077"><stop id="stop3079" offset="0" stop-color="#98a0a9" stop-opacity="1"/><stop id="stop3081" offset="1" stop-color="#c3d0dd" stop-opacity="1"/></linearGradient><linearGradient id="linearGradient3061"><stop id="stop3063" offset="0" stop-color="#fff" stop-opacity="1"/><stop id="stop3065" offset="1" stop-color="#000" stop-opacity="1"/></linearGradient><linearGradient id="linearGradient3049"><stop id="stop3051" offset="0" stop-color="#b6b6b6" stop-opacity="1"/><stop id="stop2262" offset=".5" stop-color="#f2f2f2" stop-opacity="1"/><stop id="stop2264" offset=".676" stop-color="#fafafa" stop-opacity="1"/><stop id="stop2268" offset=".841" stop-color="#d8d8d8" stop-opacity="1"/><stop id="stop2266" offset=".875" stop-color="#f2f2f2" stop-opacity="1"/><stop id="stop3053" offset="1" stop-color="#dbdbdb" stop-opacity="1"/></linearGradient><linearGradient id="linearGradient3055" x1="19.648" x2="20.631" y1="42.254" y2="6.776" gradientTransform="matrix(0.93682133,0,0,0.93682133,2.7061205,1.2988597)" gradientUnits="userSpaceOnUse" xlink:href="#linearGradient3049"/><linearGradient id="linearGradient3067" x1="50.153" x2="25.291" y1="-3.632" y2="-4.3" gradientTransform="matrix(0.93682133,0,0,0.93682133,2.8188865,-1.0314932)" gradientUnits="userSpaceOnUse" xlink:href="#linearGradient3061"/><linearGradient id="linearGradient3083" x1="38.228" x2="37.535" y1="13.603" y2="6.629" gradientTransform="matrix(0.93682133,0,0,0.93682133,3.0373365,1.9612928)" gradientUnits="userSpaceOnUse" xlink:href="#linearGradient3077"/><linearGradient id="linearGradient3093" x1="9.75" x2="16.915" y1="32.284" y2="39.443" gradientTransform="matrix(0.93682133,0,0,0.93682133,2.7061205,1.2988597)" gradientUnits="userSpaceOnUse" xlink:href="#linearGradient3087"/><linearGradient id="linearGradient2263" x1="12.005" x2="10.651" y1="35.688" y2="33.195" gradientTransform="matrix(1.0744043,-0.02812294,0.02812294,1.0744043,1.6996384,-3.9155296)" gradientUnits="userSpaceOnUse" xlink:href="#linearGradient2257"/><linearGradient id="linearGradient2271" x1="14.018" x2="15.416" y1="36.943" y2="38.268" gradientTransform="matrix(0.93663893,-0.01847861,0.01847861,0.93663893,2.3079328,0.3390923)" gradientUnits="userSpaceOnUse" xlink:href="#linearGradient2265"/><linearGradient id="linearGradient2256" x1="31.177" x2="40.859" y1="19.822" y2="9.657" gradientTransform="matrix(1.0666667,0,0,1.0666667,0,-4)" gradientUnits="userSpaceOnUse" xlink:href="#linearGradient2250"/><linearGradient id="linearGradient2263-5" x1="12.005" x2="10.651" y1="35.688" y2="33.195" gradientTransform="matrix(1.0744043,-0.02812294,0.02812294,1.0744043,-99.524814,-54.842349)" gradientUnits="userSpaceOnUse" xlink:href="#linearGradient2250"/></defs><metadata id="metadata4"/><g id="layer1"><path id="path2140" fill="url(#linearGradient3055)" fill-opacity="1" fill-rule="nonzero" stroke="#888a85" stroke-dasharray="none" stroke-dashoffset="0" stroke-linecap="butt" stroke-linejoin="miter" stroke-miterlimit="4" stroke-opacity="1" stroke-width="1.067" marker-end="none" marker-mid="none" marker-start="none" d="m 19.100494,18.630054 20.258761,20.727173 c 0.819719,0.936821 3.417078,1.660865 5.152518,0 1.675868,-1.603854 1.288129,-3.864389 -0.351308,-5.503826 L 24.721422,13.009126 C 27.121422,6.34246 22.26394,0.7429205 15.997274,1.9429205 l -1.346682,1.2295781 4.215696,3.9814904 0.234206,3.513084 -3.147565,2.873177 -3.761492,-0.414021 -3.8643878,-3.630182 c 0,0 -1.3547961,1.338564 -1.3547961,1.338564 -0.6301477,6.017405 5.6615739,11.395443 12.1282409,7.795443 z" color="#000" display="inline" opacity="1" overflow="visible" visibility="visible" style="marker:none"/><path id="path3057" fill="none" fill-opacity="1" fill-rule="nonzero" stroke="#fff" stroke-dasharray="none" stroke-dashoffset="0" stroke-linecap="butt" stroke-linejoin="miter" stroke-miterlimit="4" stroke-opacity="1" stroke-width="1.067" marker-end="none" marker-mid="none" marker-start="none" d="m 19.325211,17.26944 20.483074,21.362786 c 0.634567,0.725219 2.645255,1.285723 3.988708,0 1.297337,-1.241588 0.997177,-2.991531 -0.271957,-4.260665 L 23.800735,13.442329 c 1.6,-6.933334 -1.982707,-10.6716138 -7.316041,-10.5382805 l -0.288139,0.291602 3.843118,3.4520175 0.138843,4.460581 -3.854845,3.518381 -4.525126,-0.488756 -3.3883545,-3.190913 -0.3761462,0.45873 C 7.7007109,17.772357 14.958544,20.66944 19.325211,17.26944 Z" color="#000" display="inline" opacity=".426" overflow="visible" visibility="visible" style="marker:none"/><rect stroke-opacity="1" style="marker:none" id="rect3059" width="24.819" height="2.193" x="27.2" y="-5.585" fill="none" fill-opacity="1" fill-rule="nonzero" stroke="url(#linearGradient3067)" stroke-dasharray="none" stroke-dashoffset="0" stroke-linecap="butt" stroke-linejoin="miter" stroke-miterlimit="4" stroke-width="1.067" marker-end="none" marker-mid="none" marker-start="none" color="#000" display="inline" opacity=".17" overflow="visible" rx=".943" ry=".943" transform="rotate(45.73819)" visibility="visible"/><path id="path2144" fill="url(#linearGradient3083)" fill-opacity="1" fill-rule="nonzero" stroke="#878f9d" stroke-dasharray="none" stroke-dashoffset="0" stroke-linecap="butt" stroke-linejoin="miter" stroke-miterlimit="4" stroke-opacity="1" stroke-width="1.067" marker-end="none" marker-mid="none" marker-start="none" d="M 23.998714,28.133739 C 24.887824,27.371645 38.168137,13.788662 38.168137,13.788662 L 41.447011,13.554457 46.599529,6.41119 42.306913,2.5869853 35.632061,8.325019 v 3.278875 l -13.58391,14.110872 c -0.644064,0.644064 1.130844,3.121588 1.950563,2.418973 z" color="#000" display="inline" opacity="1" overflow="visible" visibility="visible" style="marker:none"/><path id="path3085" fill="none" fill-opacity="1" fill-rule="nonzero" stroke="url(#linearGradient2256)" stroke-dasharray="none" stroke-dashoffset="0" stroke-linecap="butt" stroke-linejoin="miter" stroke-miterlimit="4" stroke-opacity="1" stroke-width="1.067" marker-end="none" marker-mid="none" marker-start="none" d="M 23.895453,27.024485 C 24.585344,26.43315 37.788147,12.912691 37.788147,12.912691 L 40.911969,12.648159 45.406813,6.608623 42.324433,3.8897009 36.48275,8.921671 36.648358,11.96269 23.12718,26.141168 c -0.499753,0.499753 0.132225,1.428501 0.768273,0.883317 z" color="#000" display="inline" opacity=".54" overflow="visible" visibility="visible" style="marker:none"/><path id="path2142" fill="url(#linearGradient3093)" fill-opacity="1" fill-rule="nonzero" stroke="#204a87" stroke-dashoffset="0" stroke-linecap="butt" stroke-linejoin="miter" stroke-miterlimit="4" stroke-opacity="1" stroke-width="1.067" marker-end="none" marker-mid="none" marker-start="none" d="m 9.0296652,42.518998 c 1.4043598,1.562911 5.3052638,2.270043 7.0351398,-0.757241 0.754248,-1.319932 2.23354,-5.016322 8.833204,-10.956019 1.108422,-0.996449 2.282569,-3.275881 1.287196,-4.505459 L 23.608946,23.72402 c -1.053923,-1.171026 -3.983375,-0.624799 -5.185253,1.014268 -3.582674,4.902607 -9.4358111,8.805205 -10.7557439,9.27661 -2.5257808,0.902064 -2.2415046,4.625226 -0.570478,6.396253 z" color="#000" display="inline" overflow="visible" visibility="visible" style="marker:none"/><circle stroke-miterlimit="4" style="marker:none" id="path2146" cx="41.818" cy="36.547" r="1.288" fill="#fff" fill-opacity="1" fill-rule="nonzero" stroke="#a1a1a1" stroke-dasharray="none" stroke-dashoffset="0" stroke-linecap="butt" stroke-linejoin="miter" stroke-opacity="1" stroke-width="1.067" marker-end="none" marker-mid="none" marker-start="none" color="#000" display="inline" opacity="1" overflow="visible" visibility="visible"/><circle stroke-miterlimit="4" style="marker:none" id="path3101" cx="21.337" cy="25.174" r="1.076" fill="#fff" fill-opacity="1" fill-rule="nonzero" stroke="none" stroke-dasharray="none" stroke-dashoffset="0" stroke-linecap="butt" stroke-linejoin="miter" stroke-opacity="1" stroke-width=".609" marker-end="none" marker-mid="none" marker-start="none" color="#000" display="inline" opacity=".602" overflow="visible" visibility="visible"/><path id="path3103" fill="none" fill-opacity="1" fill-rule="nonzero" stroke="url(#linearGradient2263)" stroke-dasharray="none" stroke-dashoffset="0" stroke-linecap="round" stroke-linejoin="round" stroke-miterlimit="4" stroke-opacity="1" stroke-width="2.447" marker-end="none" marker-mid="none" marker-start="none" d="m 19.924165,27.599794 c 0,0 -7.647883,7.786254 -11.2305572,9.106187" color="#000" display="inline" opacity="1" overflow="visible" visibility="visible" style="marker:none"/><path id="path2270" fill="none" fill-opacity="1" fill-rule="nonzero" stroke="#fff" stroke-dasharray="none" stroke-dashoffset="0" stroke-linecap="butt" stroke-linejoin="miter" stroke-miterlimit="4" stroke-opacity="1" stroke-width="1.067" marker-end="none" marker-mid="none" marker-start="none" d="m 9.3930681,41.319136 c 1.5373499,1.861991 4.9061689,2.305311 5.9639039,-0.395295 0.726727,-1.855479 3.555863,-6.043506 8.744089,-10.71291 0.87137,-0.783344 1.794409,-2.575284 1.011911,-3.541898 l -2.025288,-2.025288 c -0.828526,-0.920584 -3.13147,-0.491176 -4.076309,0.797352 -2.816465,3.85411 -9.048901,8.895524 -10.5554662,9.392667 -2.332581,0.769718 -1.8954586,3.436053 -0.5818061,4.828319 z" color="#000" display="inline" opacity=".199" overflow="visible" visibility="visible" style="marker:none"/><path id="path2247" fill="none" fill-opacity="1" fill-rule="nonzero" stroke="url(#linearGradient2271)" stroke-dashoffset="0" stroke-linecap="round" stroke-linejoin="round" stroke-miterlimit="4" stroke-opacity="1" stroke-width="2.447" marker-end="none" marker-mid="none" marker-start="none" d="m 22.212909,29.345092 c 0,0 -7.810947,7.058566 -9.508003,11.584048" color="#000" display="inline" opacity=".278" overflow="visible" visibility="visible" style="marker:none"/><g id="g4598" transform="translate(105.04806,55.165071)"><path id="path3103-9" fill="none" fill-opacity="1" fill-rule="nonzero" stroke="url(#linearGradient2263-5)" stroke-dasharray="none" stroke-dashoffset="0" stroke-linecap="round" stroke-linejoin="round" stroke-miterlimit="4" stroke-opacity="1" stroke-width="2.447" marker-end="none" marker-mid="none" marker-start="none" d="m -81.300287,-23.327024 c 0,0 -7.647883,7.786254 -11.230557,9.106187" color="#000" display="inline" opacity="1" overflow="visible" visibility="visible" style="marker:none"/><path id="path3969" fill="#fff" stroke="#302b00" stroke-linecap="butt" stroke-linejoin="round" stroke-opacity="1" stroke-width="1.675" d="m -64.963045,-20.60394 4.186799,15.0724701 -14.235113,-5.0241561 -1.674714,-3.349438 8.37359,-8.373595 z"/><path id="path3843" fill="#fce94f" stroke="none" stroke-width=".83" d="m -81.710235,-37.351134 -3.349437,3.349438 16.747189,16.747194 c 0,-2.512078 0.837361,-3.349438 3.349438,-3.349438 z" opacity=".7"/><path id="path3843-7" fill="#edd400" stroke="none" stroke-width=".83" d="m -85.059672,-34.001703 -3.349438,3.34945 16.747189,16.747189 c 0,-2.512078 0.837362,-3.349438 3.349438,-3.349438 z" opacity=".7"/><path id="path3843-5" fill="#c4a000" stroke="none" stroke-width=".83" d="m -88.40911,-30.652253 -3.349438,3.349438 16.747189,16.747189 c 0,-2.512079 0.837363,-3.349438 3.349438,-3.349438 z" opacity=".7"/><path id="path3888" fill="none" stroke="#edd400" stroke-linecap="round" stroke-linejoin="miter" stroke-opacity="1" stroke-width="1.675" d="m -89.246463,-29.145013 15.072467,15.072479" opacity=".5"/><path id="path3888-5" fill="none" stroke="#fce94f" stroke-linecap="round" stroke-linejoin="miter" stroke-opacity="1" stroke-width="1.675" d="m -85.897033,-32.494447 15.072474,15.072473" opacity=".5"/><path id="path3843-5-6" fill="none" stroke="#302b00" stroke-linecap="butt" stroke-linejoin="round" stroke-opacity="1" stroke-width="1.675" d="m -81.710235,-37.351132 -3.349437,3.349438 16.747189,16.747192 c 0,-2.512078 0.837361,-3.349438 3.349438,-3.349438 z"/><path id="path3843-5-6-2" fill="none" stroke="#302b00" stroke-linecap="butt" stroke-linejoin="round" stroke-opacity="1" stroke-width="1.675" d="m -85.059672,-34.001694 -3.349438,3.349441 16.747189,16.747189 c 0,-2.512078 0.837362,-3.349438 3.349438,-3.349438 z"/><path id="path3971" fill="#302b00" stroke="#302b00" stroke-linecap="butt" stroke-linejoin="round" stroke-opacity="1" stroke-width=".837" d="m -62.450968,-13.067705 c -1.674716,0 -4.664581,2.106989 -5.024154,4.1867981 l 6.698876,3.349437 -1.674722,-6.6988751 v 0"/><path id="path3843-5-6-9" fill="none" stroke="#302b00" stroke-linecap="butt" stroke-linejoin="round" stroke-opacity="1" stroke-width="1.675" d="m -88.40911,-30.652253 -3.349438,3.349438 16.747189,16.747189 c 0,-2.512079 0.837363,-3.349438 3.349438,-3.349438 z"/></g></g></svg>