<svg xmlns="http://www.w3.org/2000/svg" xmlns:svg="http://www.w3.org/2000/svg" xmlns:xlink="http://www.w3.org/1999/xlink" id="svg3018" width="64" height="64" version="1.1"><defs id="defs3020"><linearGradient id="linearGradient3759"><stop id="stop3761" offset="0" stop-color="#c4a000" stop-opacity="1"/><stop id="stop3763" offset="1" stop-color="#fce94f" stop-opacity="1"/></linearGradient><linearGradient id="linearGradient3765" x1="168.903" x2="149.609" y1="171.571" y2="156.153" gradientUnits="userSpaceOnUse" xlink:href="#linearGradient3759"/><linearGradient id="linearGradient3773" x1="168.903" x2="161.025" y1="171.571" y2="151.81" gradientUnits="userSpaceOnUse" xlink:href="#linearGradient3759"/><linearGradient id="linearGradient4696-1" x1="168.903" x2="161.025" y1="171.571" y2="151.81" gradientTransform="matrix(1.0117827,0,0,1.0010613,-131.94627,-139.97322)" gradientUnits="userSpaceOnUse" xlink:href="#linearGradient3759"/><linearGradient id="linearGradient4777" x1="168.903" x2="161.025" y1="171.571" y2="151.81" gradientTransform="matrix(0.50589135,0.87622952,-0.86694452,0.50053065,271.74898,6.9955571)" gradientUnits="userSpaceOnUse" xlink:href="#linearGradient3759"/><linearGradient id="linearGradient4825" x1="-69.189" x2="-80.687" y1="218.916" y2="213.655" gradientTransform="matrix(0.50589135,0.87622952,-0.86694452,0.50053065,472.1396,-77.96156)" gradientUnits="userSpaceOnUse" xlink:href="#linearGradient3759"/><linearGradient id="linearGradient4401" x1="2.055" x2="8.919" y1="2.613" y2="8.474" gradientTransform="matrix(1.8673968,3.234426,-3.234426,1.8673968,194.7406,156.47609)" gradientUnits="userSpaceOnUse" xlink:href="#linearGradient4258"/><linearGradient id="linearGradient4258"><stop id="stop4260" offset="0" stop-color="#fff" stop-opacity="1"/><stop id="stop4262" offset="1" stop-color="#fff" stop-opacity="0"/></linearGradient><linearGradient id="linearGradient4399" x1="5.965" x2="52.854" y1="26.048" y2="26.048" gradientTransform="matrix(1.8673968,3.234426,-3.234426,1.8673968,194.7406,156.47609)" gradientUnits="userSpaceOnUse" xlink:href="#linearGradient4258"/><linearGradient id="linearGradient4395" x1="18.936" x2="53.589" y1="23.668" y2="26.649" gradientTransform="matrix(1.8673968,3.234426,-3.234426,1.8673968,194.7406,156.47609)" gradientUnits="userSpaceOnUse" xlink:href="#linearGradient2402-6"/><linearGradient id="linearGradient2402-6"><stop id="stop2404-7" offset="0" stop-color="#729fcf" stop-opacity="1"/><stop id="stop2406-5" offset="1" stop-color="#528ac5" stop-opacity="1"/></linearGradient><linearGradient id="linearGradient4397" x1="46.835" x2="45.38" y1="45.264" y2="50.94" gradientTransform="matrix(1.8673968,3.234426,-3.234426,1.8673968,194.7406,156.47609)" gradientUnits="userSpaceOnUse" xlink:href="#linearGradient2871-9"/><linearGradient id="linearGradient2871-9"><stop id="stop2873-2" offset="0" stop-color="#3465a4" stop-opacity="1"/><stop id="stop2875-3" offset="1" stop-color="#3465a4" stop-opacity="1"/></linearGradient></defs><metadata id="metadata3023"/><g id="layer1"><g id="g3861" transform="rotate(-60,-19.885003,211.41896)"><path id="path4775" fill="#f6efd1" fill-opacity="1" fill-rule="nonzero" stroke="#353535" stroke-dasharray="none" stroke-dashoffset="0" stroke-linecap="round" stroke-linejoin="round" stroke-miterlimit="4" stroke-opacity="1" stroke-width="4" marker-end="none" marker-mid="none" marker-start="none" d="m 181.18703,156.58637 -14.38406,-24.53892 -22.32456,13.05147 14.40211,24.83973 11.15886,4.5113 -0.77696,7.77145 -10.12506,5.8457 c -1.84677,-0.77424 -3.95711,-0.58367 -5.63531,0.50889 -2.79552,1.8238 -3.58376,5.56821 -1.7608,8.36427 l 0.004,0.007 c 1.8265,2.79405 5.57202,3.57875 8.36642,1.75279 1.83723,-1.20114 2.87898,-3.30382 2.72154,-5.4932 4.81876,-2.76365 12.95698,-7.54612 12.95698,-7.54612 l 1.33807,-14.99881 2.55096,-1.52692 z" clip-rule="nonzero" color="#000" color-interpolation="sRGB" color-interpolation-filters="linearRGB" color-rendering="auto" display="inline" enable-background="accumulate" image-rendering="auto" opacity="1" overflow="visible" shape-rendering="auto" text-rendering="auto" vector-effect="none" visibility="visible" style="isolation:auto;mix-blend-mode:normal;solid-color:#000;solid-opacity:1;marker:none"/><path id="path3854" fill="none" fill-opacity="1" stroke="#2d2d2d" stroke-dasharray="none" stroke-dashoffset="0" stroke-linecap="round" stroke-linejoin="miter" stroke-miterlimit="4" stroke-opacity="1" stroke-width="4" d="m 162.04014,142.06651 8.55256,14.59012 m -15.11324,-10.66255 8.55255,14.59012" opacity="1" vector-effect="none"/><ellipse id="path3859" cx="167.16" cy="-169.337" fill="#302b00" fill-opacity="1" fill-rule="evenodd" stroke="#242421" stroke-dasharray="none" stroke-dashoffset="0" stroke-linecap="butt" stroke-linejoin="bevel" stroke-miterlimit="4" stroke-opacity="1" stroke-width="3.047" display="inline" enable-background="accumulate" overflow="visible" rx="1.541" ry="1.525" transform="matrix(0.01120568,0.99993721,-0.99993726,0.01120168,0,0)" visibility="visible" style="marker:none"/><path id="path3757" fill="none" stroke="#cacaca" stroke-linecap="butt" stroke-linejoin="miter" stroke-opacity="1" stroke-width="3.047" d="m 176.81273,167.26762 -6.56068,3.92757 -9.13607,-3.48982 -12.52611,-21.64238 17.1438,-9.79128 12.44009,21.22198 z"/><path clip-rule="nonzero" style="isolation:auto;mix-blend-mode:normal;solid-color:#000;solid-opacity:1;marker:none" id="path4823" fill="url(#linearGradient4825)" fill-opacity="1" fill-rule="nonzero" stroke="#302b00" stroke-dasharray="none" stroke-dashoffset="0" stroke-linecap="round" stroke-linejoin="round" stroke-miterlimit="4" stroke-opacity="1" stroke-width="4" marker-end="none" marker-mid="none" marker-start="none" d="m 246.3186,-31.690249 a 6.6491361,6.6491361 0 0 1 -6.99946,-6.276824 6.6491361,6.6491361 0 0 1 6.27437,-7.001664 6.6491361,6.6491361 0 0 1 7.00387,6.271906 6.6491361,6.6491361 0 0 1 -6.26945,7.00607" color="#000" color-interpolation="sRGB" color-interpolation-filters="linearRGB" color-rendering="auto" display="inline" enable-background="accumulate" image-rendering="auto" opacity="1" overflow="visible" shape-rendering="auto" text-rendering="auto" transform="rotate(60)" vector-effect="none" visibility="visible"/><g id="g897" transform="translate(-37.561514,-27.144527)"><g id="g891"><path id="path4979-0" fill="url(#linearGradient4395)" fill-opacity="1" fill-rule="nonzero" stroke="url(#linearGradient4397)" stroke-dasharray="none" stroke-dashoffset="0" stroke-linecap="butt" stroke-linejoin="miter" stroke-miterlimit="4" stroke-opacity="1" stroke-width="1.413" d="m 193.62825,179.75929 -8.07268,-2.07762 -3.72806,14.55102 -13.88621,-3.97711 -2.69972,8.1623 14.42287,4.20635 -3.64262,14.23216 8.24774,2.38086 3.58426,-14.33324 14.52395,4.148 2.33813,-8.08831 -14.74173,-4.2918 z" color="#000" display="block" enable-background="accumulate" overflow="visible" visibility="visible" style="marker:none"/></g><path id="path4979-0-8" fill="none" stroke="url(#linearGradient4399)" stroke-dasharray="none" stroke-dashoffset="0" stroke-linecap="butt" stroke-linejoin="miter" stroke-miterlimit="4" stroke-opacity="1" stroke-width="1.413" d="m 191.16246,181.3772 -3.94692,-1.15689 -3.58235,14.4669 -13.64511,-3.72776 -1.622,4.1402 14.18176,3.95699 -3.71849,13.596 4.12199,1.46011 3.66014,-13.69707 14.02221,3.95197 1.26042,-4.0662 -14.24001,-4.09577 z" color="#000" display="block" enable-background="accumulate" opacity=".5" overflow="visible" visibility="visible" style="marker:none"/><path id="path3488" fill="url(#linearGradient4401)" fill-opacity="1" stroke="none" stroke-width="4.124" d="m 203.7049,199.31348 -14.45823,-4.22245 3.63769,-14.87619 -6.74448,-1.80718 -3.83792,14.64836 -13.88145,-3.93726 -1.9798,6.08858 35.79955,9.89728 z"/></g></g></g></svg>