<svg xmlns="http://www.w3.org/2000/svg" xmlns:svg="http://www.w3.org/2000/svg" xmlns:xlink="http://www.w3.org/1999/xlink" id="svg3018" width="64" height="64" version="1.1"><defs id="defs3020"><linearGradient id="linearGradient3759"><stop id="stop3761" offset="0" stop-color="#c4a000" stop-opacity="1"/><stop id="stop3763" offset="1" stop-color="#fce94f" stop-opacity="1"/></linearGradient><linearGradient id="linearGradient3765" x1="168.903" x2="149.609" y1="171.571" y2="156.153" gradientUnits="userSpaceOnUse" xlink:href="#linearGradient3759"/><linearGradient id="linearGradient3773" x1="168.903" x2="161.025" y1="171.571" y2="151.81" gradientUnits="userSpaceOnUse" xlink:href="#linearGradient3759"/><linearGradient id="linearGradient4696-1" x1="168.903" x2="161.025" y1="171.571" y2="151.81" gradientTransform="matrix(1.0117827,0,0,1.0010613,-131.94627,-139.97322)" gradientUnits="userSpaceOnUse" xlink:href="#linearGradient3759"/><linearGradient id="linearGradient4777" x1="168.903" x2="161.025" y1="171.571" y2="151.81" gradientTransform="matrix(0.50589135,0.87622952,-0.86694452,0.50053065,271.74898,6.9955571)" gradientUnits="userSpaceOnUse" xlink:href="#linearGradient3759"/><linearGradient id="linearGradient4825" x1="-69.189" x2="-80.687" y1="218.916" y2="213.655" gradientTransform="matrix(0.50589135,0.87622952,-0.86694452,0.50053065,472.1396,-77.96156)" gradientUnits="userSpaceOnUse" xlink:href="#linearGradient3759"/><linearGradient id="linearGradient3799" x1="29" x2="15" y1="47" y2="17" gradientTransform="matrix(0.53333335,0.92376046,-0.92376046,0.53333335,176.84672,120.79707)" gradientUnits="userSpaceOnUse" xlink:href="#linearGradient3793"/><linearGradient id="linearGradient3793"><stop id="stop3795" offset="0" stop-color="#a40000" stop-opacity="1"/><stop id="stop3797" offset="1" stop-color="#ef2929" stop-opacity="1"/></linearGradient><linearGradient id="linearGradient4338" x1="34" x2="28" y1="1046.362" y2="994.362" gradientTransform="matrix(0.53333335,0.92376046,-0.92376046,0.53333335,1122.9963,-340.62414)" gradientUnits="userSpaceOnUse" xlink:href="#linearGradient4332"/><linearGradient id="linearGradient4332"><stop id="stop4334" offset="0" stop-color="#555753" stop-opacity="1"/><stop id="stop4336" offset="1" stop-color="#d3d7cf" stop-opacity="1"/></linearGradient></defs><metadata id="metadata3023"/><g id="layer1"><g id="g3861" transform="rotate(-60,-19.885003,211.41896)"><path id="path4775" fill="#f6efd1" fill-opacity="1" fill-rule="nonzero" stroke="#353535" stroke-dasharray="none" stroke-dashoffset="0" stroke-linecap="round" stroke-linejoin="round" stroke-miterlimit="4" stroke-opacity="1" stroke-width="4" marker-end="none" marker-mid="none" marker-start="none" d="m 181.18703,156.58637 -14.38406,-24.53892 -22.32456,13.05147 14.40211,24.83973 11.15886,4.5113 -0.77696,7.77145 -10.12506,5.8457 c -1.84677,-0.77424 -3.95711,-0.58367 -5.63531,0.50889 -2.79552,1.8238 -3.58376,5.56821 -1.7608,8.36427 l 0.004,0.007 c 1.8265,2.79405 5.57202,3.57875 8.36642,1.75279 1.83723,-1.20114 2.87898,-3.30382 2.72154,-5.4932 4.81876,-2.76365 12.95698,-7.54612 12.95698,-7.54612 l 1.33807,-14.99881 2.55096,-1.52692 z" clip-rule="nonzero" color="#000" color-interpolation="sRGB" color-interpolation-filters="linearRGB" color-rendering="auto" display="inline" enable-background="accumulate" image-rendering="auto" opacity="1" overflow="visible" shape-rendering="auto" text-rendering="auto" vector-effect="none" visibility="visible" style="isolation:auto;mix-blend-mode:normal;solid-color:#000;solid-opacity:1;marker:none"/><path id="path3854" fill="none" fill-opacity="1" stroke="#2d2d2d" stroke-dasharray="none" stroke-dashoffset="0" stroke-linecap="round" stroke-linejoin="miter" stroke-miterlimit="4" stroke-opacity="1" stroke-width="4" d="m 162.04014,142.06651 8.55256,14.59012 m -15.11324,-10.66255 8.55255,14.59012" opacity="1" vector-effect="none"/><ellipse id="path3859" cx="167.16" cy="-169.337" fill="#302b00" fill-opacity="1" fill-rule="evenodd" stroke="#242421" stroke-dasharray="none" stroke-dashoffset="0" stroke-linecap="butt" stroke-linejoin="bevel" stroke-miterlimit="4" stroke-opacity="1" stroke-width="3.047" display="inline" enable-background="accumulate" overflow="visible" rx="1.541" ry="1.525" transform="matrix(0.01120568,0.99993721,-0.99993726,0.01120168,0,0)" visibility="visible" style="marker:none"/><path id="path3757" fill="none" stroke="#cacaca" stroke-linecap="butt" stroke-linejoin="miter" stroke-opacity="1" stroke-width="3.047" d="m 176.81273,167.26762 -6.56068,3.92757 -9.13607,-3.48982 -12.52611,-21.64238 17.1438,-9.79128 12.44009,21.22198 z"/><path clip-rule="nonzero" style="isolation:auto;mix-blend-mode:normal;solid-color:#000;solid-opacity:1;marker:none" id="path4823" fill="url(#linearGradient4825)" fill-opacity="1" fill-rule="nonzero" stroke="#302b00" stroke-dasharray="none" stroke-dashoffset="0" stroke-linecap="round" stroke-linejoin="round" stroke-miterlimit="4" stroke-opacity="1" stroke-width="4" marker-end="none" marker-mid="none" marker-start="none" d="m 246.3186,-31.690249 a 6.6491361,6.6491361 0 0 1 -6.99946,-6.276824 6.6491361,6.6491361 0 0 1 6.27437,-7.001664 6.6491361,6.6491361 0 0 1 7.00387,6.271906 6.6491361,6.6491361 0 0 1 -6.26945,7.00607" color="#000" color-interpolation="sRGB" color-interpolation-filters="linearRGB" color-rendering="auto" display="inline" enable-background="accumulate" image-rendering="auto" opacity="1" overflow="visible" shape-rendering="auto" text-rendering="auto" transform="rotate(60)" vector-effect="none" visibility="visible"/><g id="g852" transform="translate(-31.203754,-54.657523)"><path id="path11869" fill="url(#linearGradient4338)" fill-opacity="1" stroke="#2e3436" stroke-dasharray="none" stroke-linecap="butt" stroke-linejoin="miter" stroke-miterlimit="4" stroke-opacity="1" stroke-width="4" d="m 232.6811,232.05791 -7.25778,4.19028 -5.66645,-9.81458 -27.20399,15.70622 -5.33334,-9.2376 27.20399,-15.70623 -5.81922,-10.07918 7.1814,-4.32257 z" font-family="sans-serif" font-size="medium" font-style="normal" font-weight="normal" letter-spacing="0" text-anchor="middle" word-spacing="0" style="line-height:125%;text-align:center"/><path id="path11869-6" fill="none" fill-opacity="1" stroke="#d3d7cf" stroke-dasharray="none" stroke-linecap="butt" stroke-linejoin="miter" stroke-miterlimit="4" stroke-opacity="1" stroke-width="3" d="m 229.60667,231.45777 -3.29817,1.9042 -5.70464,-9.88074 -26.47637,15.28614 -3.2,-5.54257 26.47637,-15.28613 -6.01017,-10.40991 3.29817,-1.9042 z" font-family="sans-serif" font-size="medium" font-style="normal" font-weight="normal" letter-spacing="0" text-anchor="middle" word-spacing="0" style="line-height:125%;text-align:center"/></g><g id="g849" transform="translate(-18.280139,1.0669846)"><path id="rect3761" fill="url(#linearGradient3799)" fill-opacity="1" fill-rule="evenodd" stroke="#280000" stroke-dasharray="none" stroke-dashoffset="0" stroke-linecap="round" stroke-linejoin="round" stroke-miterlimit="4" stroke-opacity="1" stroke-width="2.133" d="m 170.99032,142.65347 -8.74256,-2.34256 -3.90428,14.57094 -14.57093,-3.90427 -2.34257,8.74256 14.57094,3.90427 -3.90427,14.57094 8.74256,2.34256 3.90427,-14.57093 14.57094,3.90427 2.34257,-8.74257 -14.57094,-3.90427 z" color="#000" display="inline" enable-background="accumulate" overflow="visible" visibility="visible" style="marker:none"/><path id="rect3761-3" fill="none" stroke="#ef2929" stroke-dasharray="none" stroke-dashoffset="0" stroke-linecap="round" stroke-linejoin="miter" stroke-miterlimit="4" stroke-opacity="1" stroke-width="2.133" d="m 168.21904,144.25347 -4.37128,-1.17128 -3.90428,14.57094 -14.57093,-3.90427 -1.17129,4.37128 14.57094,3.90427 -3.90427,14.57094 4.37128,1.17128 3.90427,-14.57094 14.57094,3.90427 1.17128,-4.37128 -14.57093,-3.90427 z" color="#000" display="inline" enable-background="accumulate" overflow="visible" visibility="visible" style="marker:none"/></g></g></g></svg>