<svg xmlns="http://www.w3.org/2000/svg" xmlns:svg="http://www.w3.org/2000/svg" xmlns:xlink="http://www.w3.org/1999/xlink" id="svg3559" width="64" height="64" version="1.1" viewBox="0 0 64 64"><defs id="defs3561"><linearGradient id="linearGradient4383-3"><stop id="stop73188" offset="0" stop-color="#3465a4" stop-opacity="1"/><stop id="stop73190" offset="1" stop-color="#729fcf" stop-opacity="1"/></linearGradient><linearGradient id="linearGradient4399" x1="48.714" x2="46.714" y1="45.586" y2="34.586" gradientTransform="translate(1.2856487,1.4142136)" gradientUnits="userSpaceOnUse" xlink:href="#linearGradient3850"/><linearGradient id="linearGradient4389-0" x1="27.244" x2="21.244" y1="54.588" y2="30.588" gradientTransform="translate(-1.243533,-2.588112)" gradientUnits="userSpaceOnUse" xlink:href="#linearGradient4383-3"/><linearGradient id="linearGradient4399-7" x1="48.714" x2="40.714" y1="45.586" y2="24.586" gradientTransform="translate(1.2856487,1.4142136)" gradientUnits="userSpaceOnUse" xlink:href="#linearGradient4393-9"/><linearGradient id="linearGradient4393-9"><stop id="stop4395-8" offset="0" stop-color="#204a87" stop-opacity="1"/><stop id="stop4397-1" offset="1" stop-color="#3465a4" stop-opacity="1"/></linearGradient><linearGradient id="linearGradient69042" x1="48.714" x2="46.714" y1="45.586" y2="35.586" gradientTransform="translate(-12.714351,-17.585786)" gradientUnits="userSpaceOnUse" xlink:href="#linearGradient3798"/><linearGradient id="linearGradient69056" x1="31.244" x2="13.244" y1="60.588" y2="26.588" gradientTransform="translate(-1.243533,-2.588112)" gradientUnits="userSpaceOnUse" xlink:href="#linearGradient3798"/><linearGradient id="linearGradient3850"><stop id="stop3852" offset="0" stop-color="#5c3566" stop-opacity="1"/><stop id="stop3854" offset="1" stop-color="#75507b" stop-opacity="1"/></linearGradient><linearGradient id="linearGradient3798"><stop id="stop3800" offset="0" stop-color="#75507b" stop-opacity="1"/><stop id="stop3802" offset="1" stop-color="#ad7fa8" stop-opacity="1"/></linearGradient><linearGradient id="linearGradient69717" x1="50.714" x2="48.714" y1="25.586" y2="20.586" gradientTransform="translate(1.285649,1.4142134)" gradientUnits="userSpaceOnUse" xlink:href="#linearGradient4383-1"/><linearGradient id="linearGradient4383-1"><stop id="stop69725" offset="0" stop-color="#c4a000" stop-opacity="1"/><stop id="stop69727" offset="1" stop-color="#fce94f" stop-opacity="1"/></linearGradient><linearGradient id="linearGradient69709" x1="20.244" x2="17.244" y1="37.588" y2="27.588" gradientTransform="translate(21.756467,-5.588112)" gradientUnits="userSpaceOnUse" xlink:href="#linearGradient4383-1"/><linearGradient id="linearGradient1896" x1="60.093" x2="60.368" y1="26.519" y2="18.118" gradientUnits="userSpaceOnUse" xlink:href="#linearGradient4272"/><linearGradient id="linearGradient4272"><stop id="stop4274" offset="0" stop-color="#8ae234" stop-opacity="1"/><stop id="stop4276" offset="1" stop-color="#8ae234" stop-opacity="0"/></linearGradient><linearGradient id="linearGradient1898" x1="43.342" x2="49.501" y1="23.587" y2="20.05" gradientUnits="userSpaceOnUse" xlink:href="#linearGradient4262"/><linearGradient id="linearGradient4262"><stop id="stop4264" offset="0" stop-color="#4e9a06" stop-opacity="1"/><stop id="stop4270" offset=".431" stop-color="#4e9a06" stop-opacity=".498"/><stop id="stop4266" offset="1" stop-color="#4e9a06" stop-opacity="0"/></linearGradient><linearGradient id="linearGradient939" x1="60.093" x2="60.368" y1="26.519" y2="18.118" gradientUnits="userSpaceOnUse" xlink:href="#linearGradient4272"/><linearGradient id="linearGradient941" x1="43.342" x2="49.501" y1="23.587" y2="20.05" gradientUnits="userSpaceOnUse" xlink:href="#linearGradient4262"/><linearGradient id="linearGradient943" x1="60.093" x2="60.368" y1="26.519" y2="18.118" gradientUnits="userSpaceOnUse" xlink:href="#linearGradient4272"/><linearGradient id="linearGradient945" x1="43.342" x2="49.501" y1="23.587" y2="20.05" gradientUnits="userSpaceOnUse" xlink:href="#linearGradient4262"/></defs><metadata id="metadata3564"/><g id="layer1"><path id="path4381" fill="url(#linearGradient69056)" fill-opacity="1" fill-rule="nonzero" stroke="#302b00" stroke-dasharray="none" stroke-linejoin="round" stroke-miterlimit="4" stroke-width="2" d="M 9,49 V 21 l 14,5 v 14 l 14,5 v 14 z" opacity=".6"/><path id="path4391" fill="url(#linearGradient4399)" fill-opacity="1" fill-rule="nonzero" stroke="#302b00" stroke-dasharray="none" stroke-linejoin="round" stroke-miterlimit="4" stroke-width="2" d="M 37,59 37,45 55,28 55,41 Z" opacity=".6"/><path id="path4403" fill="#ad7fa8" fill-opacity="1" fill-rule="nonzero" stroke="#302b00" stroke-dasharray="none" stroke-linejoin="round" stroke-miterlimit="4" stroke-width="2" d="M 9,21 29,5 42,10 23,26 Z" opacity=".6"/><path id="path4381-7" fill="none" stroke="#ad7fa8" stroke-dasharray="none" stroke-linejoin="miter" stroke-miterlimit="4" stroke-width="2" d="M 11.008035,47.60627 11,24 l 10,3.5 0,13.5 14,5 0.0081,10.184812 z" opacity=".503"/><path id="path4391-0" fill="none" stroke="#75507b" stroke-dasharray="none" stroke-linejoin="miter" stroke-miterlimit="4" stroke-width="2" d="M 39.005041,54.16825 39,46 53,32.5 l 0.0021,7.676847 z" opacity=".333"/><path id="path69038" fill="#ad7fa8" fill-opacity="1" fill-rule="nonzero" stroke="#302b00" stroke-dasharray="none" stroke-linejoin="round" stroke-miterlimit="4" stroke-width="2" d="M 23,40 42,23 55,28 37,45 Z" opacity=".47"/><path id="path69040" fill="url(#linearGradient69042)" fill-opacity="1" fill-rule="nonzero" stroke="#302b00" stroke-dasharray="none" stroke-linejoin="round" stroke-miterlimit="4" stroke-width="2" d="M 23,40 23,26 42,10 42,23 Z" opacity=".367"/><path id="path69044" fill="none" stroke="#ad7fa8" stroke-dasharray="none" stroke-linejoin="miter" stroke-miterlimit="4" stroke-width="2" d="m 25,36 0,-9 15,-13 0,8 z" opacity=".427"/><path id="path69705" fill="url(#linearGradient69709)" fill-opacity="1" fill-rule="nonzero" stroke="#302b00" stroke-dasharray="none" stroke-linejoin="round" stroke-miterlimit="4" stroke-width="2" d="M 31,33 V 19 l 13,5 v 14.5 z" display="inline" opacity=".6"/><path id="path69707" fill="none" stroke="#fce94f" stroke-dasharray="none" stroke-linejoin="miter" stroke-miterlimit="4" stroke-width="2" d="M 33,32 V 22 l 9,3 v 10.5 z" display="inline" opacity=".6"/><path id="path69715" fill="url(#linearGradient69717)" fill-opacity="1" fill-rule="nonzero" stroke="#302b00" stroke-dasharray="none" stroke-linejoin="round" stroke-miterlimit="4" stroke-width="2" d="M 44,38.5 V 24 l 11,-9 v 13 z" display="inline" opacity=".6"/><path id="path69719" fill="none" stroke="#fce94f" stroke-dasharray="none" stroke-linejoin="miter" stroke-miterlimit="4" stroke-width="2" d="m 46,34 v -9 l 7,-6 v 8 z" display="inline" opacity=".6"/><path id="path69721" fill="#fce94f" fill-opacity="1" fill-rule="nonzero" stroke="#302b00" stroke-dasharray="none" stroke-linejoin="round" stroke-miterlimit="4" stroke-width="2" d="M 31,19 42,9.9999998 55,15 44,24 Z" display="inline" opacity=".6"/><g id="g1745" display="inline" transform="matrix(0.59171319,0,0,0.59171319,-1.0982587,36.928304)"><g id="g1708"><path id="path1700" fill="url(#linearGradient939)" fill-opacity="1" fill-rule="nonzero" stroke="url(#linearGradient941)" stroke-dasharray="none" stroke-dashoffset="0" stroke-linecap="butt" stroke-linejoin="miter" stroke-miterlimit="4" stroke-opacity="1" stroke-width="2" d="m 36.693741,33.480869 c 0,0 12.247378,0.84932 8.478954,-13.41925 h 10.534457 c 0,0 -0.685168,16.137073 -19.013411,13.41925 z" color="#000" display="block" overflow="visible" visibility="visible" style="marker:none"/><path id="path1702" fill="#8ae234" fill-opacity="1" fill-rule="nonzero" stroke="#4e9a06" stroke-dasharray="none" stroke-dashoffset="0" stroke-linecap="butt" stroke-linejoin="round" stroke-miterlimit="4" stroke-opacity="1" stroke-width="2" d="m 55.477287,19.596314 c 5.030202,23.64849 -20.43164,32.533266 -42.629203,15.168032 l -6.542274,7.122518 0.13116,-23.281319 20.502868,0.02094 c 0,0 -6.824331,7.607846 -6.824331,7.607846 15.61103,11.73228 35.604518,10.854014 35.36178,-6.638013 z" color="#000" display="block" overflow="visible" visibility="visible" style="marker:none"/><g id="g1706" fill="#73d216" fill-opacity="1" stroke="#8ae234" stroke-opacity="1" stroke-width=".733" transform="matrix(0.69686517,0.58385766,0.58876622,-0.69105539,-8.35526,29.821354)"><path id="path1704" fill="#73d216" fill-opacity="1" stroke="#8ae234" stroke-dasharray="none" stroke-dashoffset="0" stroke-linecap="butt" stroke-linejoin="miter" stroke-miterlimit="21" stroke-opacity="1" stroke-width="2.201" d="M 52.368857,42.344789 C 57.336994,33.465615 49.176003,12.601866 19.05552,12.672851 L 18.677956,5.6633463 7.4378077,19.282655 19.129354,29.167094 18.807724,20.554957 c 18.244937,0.381972 33.804002,9.457851 33.561133,21.789832 z" color="#000" display="block" overflow="visible" visibility="visible" style="marker:none"/></g></g><g id="g1718"><path id="path1710" fill="url(#linearGradient943)" fill-opacity="1" fill-rule="nonzero" stroke="url(#linearGradient945)" stroke-dasharray="none" stroke-dashoffset="0" stroke-linecap="butt" stroke-linejoin="miter" stroke-miterlimit="4" stroke-opacity="1" stroke-width="2" d="m 36.693741,33.480869 c 0,0 12.247378,0.84932 8.478954,-13.41925 h 10.534457 c 0,0 -0.685168,16.137073 -19.013411,13.41925 z" color="#000" display="block" overflow="visible" visibility="visible" style="marker:none"/><path id="path1712" fill="#8ae234" fill-opacity="1" fill-rule="nonzero" stroke="#4e9a06" stroke-dasharray="none" stroke-dashoffset="0" stroke-linecap="butt" stroke-linejoin="round" stroke-miterlimit="4" stroke-opacity="1" stroke-width="2" d="m 55.477287,19.596314 c 5.030202,23.64849 -20.43164,32.533266 -42.629203,15.168032 l -6.542274,7.122518 0.13116,-23.281319 20.502868,0.02094 c 0,0 -6.824331,7.607846 -6.824331,7.607846 15.61103,11.73228 35.604518,10.854014 35.36178,-6.638013 z" color="#000" display="block" overflow="visible" visibility="visible" style="marker:none"/><g id="g1716" fill="#73d216" fill-opacity="1" stroke="#8ae234" stroke-opacity="1" stroke-width=".733" transform="matrix(0.69686517,0.58385766,0.58876622,-0.69105539,-8.35526,29.821354)"><path id="path1714" fill="#73d216" fill-opacity="1" stroke="#8ae234" stroke-dasharray="none" stroke-dashoffset="0" stroke-linecap="butt" stroke-linejoin="miter" stroke-miterlimit="21" stroke-opacity="1" stroke-width="2.201" d="M 52.368857,42.344789 C 57.336994,33.465615 49.176003,12.601866 19.05552,12.672851 L 18.677956,5.6633463 7.4378077,19.282655 19.129354,29.167094 18.807724,20.554957 c 18.244937,0.381972 33.804002,9.457851 33.561133,21.789832 z" color="#000" display="block" overflow="visible" visibility="visible" style="marker:none"/></g></g><g id="g1728" transform="rotate(180,31.265882,15.712761)"><path id="path1720" fill="url(#linearGradient1896)" fill-opacity="1" fill-rule="nonzero" stroke="url(#linearGradient1898)" stroke-dasharray="none" stroke-dashoffset="0" stroke-linecap="butt" stroke-linejoin="miter" stroke-miterlimit="4" stroke-opacity="1" stroke-width="2" d="m 36.693741,33.480869 c 0,0 12.247378,0.84932 8.478954,-13.41925 h 10.534457 c 0,0 -0.685168,16.137073 -19.013411,13.41925 z" color="#000" display="block" overflow="visible" visibility="visible" style="marker:none"/><path id="path1722" fill="#8ae234" fill-opacity="1" fill-rule="nonzero" stroke="#4e9a06" stroke-dasharray="none" stroke-dashoffset="0" stroke-linecap="butt" stroke-linejoin="round" stroke-miterlimit="4" stroke-opacity="1" stroke-width="2" d="m 55.477287,19.596314 c 5.030202,23.64849 -20.43164,32.533266 -42.629203,15.168032 l -6.542274,7.122518 0.13116,-23.281319 20.502868,0.02094 c 0,0 -6.824331,7.607846 -6.824331,7.607846 15.61103,11.73228 35.604518,10.854014 35.36178,-6.638013 z" color="#000" display="block" overflow="visible" visibility="visible" style="marker:none"/><g id="g1726" fill="#73d216" fill-opacity="1" stroke="#8ae234" stroke-opacity="1" stroke-width=".733" transform="matrix(0.69686517,0.58385766,0.58876622,-0.69105539,-8.35526,29.821354)"><path id="path1724" fill="#73d216" fill-opacity="1" stroke="#8ae234" stroke-dasharray="none" stroke-dashoffset="0" stroke-linecap="butt" stroke-linejoin="miter" stroke-miterlimit="21" stroke-opacity="1" stroke-width="2.201" d="M 52.368857,42.344789 C 57.336994,33.465615 49.176003,12.601866 19.05552,12.672851 L 18.677956,5.6633463 7.4378077,19.282655 19.129354,29.167094 18.807724,20.554957 c 18.244937,0.381972 33.804002,9.457851 33.561133,21.789832 z" color="#000" display="block" overflow="visible" visibility="visible" style="marker:none"/></g></g></g></g></svg>