<svg xmlns="http://www.w3.org/2000/svg" xmlns:svg="http://www.w3.org/2000/svg" xmlns:xlink="http://www.w3.org/1999/xlink" id="svg5821" width="68.267" height="68.267" version="1.1" viewBox="0 0 64 64"><defs id="defs5823"><linearGradient id="linearGradient4569"><stop id="stop4571" offset="0" stop-color="#fff" stop-opacity="1"/><stop id="stop4573" offset="1" stop-color="#a9a9a9" stop-opacity="1"/></linearGradient><linearGradient id="linearGradient6349"><stop id="stop6351" offset="0" stop-color="#000" stop-opacity="1"/><stop id="stop6353" offset="1" stop-color="#000" stop-opacity="0"/></linearGradient><linearGradient id="linearGradient3377"><stop id="stop3379" offset="0" stop-color="#0019a3" stop-opacity="1"/><stop id="stop3381" offset="1" stop-color="#0069ff" stop-opacity="1"/></linearGradient><linearGradient id="linearGradient3383" x1="901.188" x2="1267.906" y1="1190.875" y2="1190.875" gradientTransform="matrix(-1,0,0,1,2199.356,0)" gradientUnits="userSpaceOnUse" xlink:href="#linearGradient3377"/><radialGradient id="radialGradient6355" cx="1103.64" cy="1424.447" r="194.406" fx="1103.64" fy="1424.447" gradientTransform="matrix(-1.4307499,-1.3605156e-7,-1.202713e-8,0.1264801,2674.7488,1244.2826)" gradientUnits="userSpaceOnUse" xlink:href="#linearGradient6349"/><linearGradient id="linearGradient4575" x1="12.933" x2="49.987" y1="14.796" y2="48.776" gradientUnits="userSpaceOnUse" xlink:href="#linearGradient4569"/><linearGradient id="linearGradient4575-8" x1="12.933" x2="49.987" y1="14.796" y2="48.776" gradientUnits="userSpaceOnUse" xlink:href="#linearGradient4569-9"/><linearGradient id="linearGradient4569-9"><stop id="stop4571-0" offset="0" stop-color="#fff" stop-opacity="1"/><stop id="stop4573-8" offset="1" stop-color="#708cff" stop-opacity="1"/></linearGradient><linearGradient id="linearGradient4643-6" x1="12.933" x2="49.987" y1="14.796" y2="48.776" gradientUnits="userSpaceOnUse" xlink:href="#linearGradient4569-7"/><linearGradient id="linearGradient4569-7"><stop id="stop4571-5" offset="0" stop-color="#fff" stop-opacity="1"/><stop id="stop4573-3" offset="1" stop-color="#a9a9a9" stop-opacity="1"/></linearGradient><linearGradient id="linearGradient875" x1="1003.543" x2="1170.726" y1="1318.15" y2="1232.536" gradientUnits="userSpaceOnUse" xlink:href="#linearGradient4569-7"/></defs><g id="layer1"><g id="g3360" transform="matrix(0.1367863,0,0,0.1367863,-119.15519,-134.86962)"><g id="g887" transform="matrix(2.8559044,0,0,2.8559044,-1101.2845,-2196.9277)"><path id="path3765" fill="#000" fill-opacity="0" stroke="green" stroke-dasharray="none" stroke-linecap="round" stroke-linejoin="miter" stroke-miterlimit="4" stroke-opacity="1" stroke-width="21.932" d="m 761.44461,1172.41 h 32.89803 l 43.864,95.0388"/><circle id="path3815" cx="732.202" cy="1172.41" r="25.587" fill="#000" fill-opacity="0" stroke="green" stroke-dasharray="none" stroke-miterlimit="4" stroke-opacity="1" stroke-width="21.932"/></g><g id="g891" transform="translate(53.689896,-34.825878)"><path id="path848" fill="#003" fill-opacity="1" fill-rule="nonzero" stroke="none" stroke-width="17.193" d="m 1078.739,1088.7336 h -26.1334 c -27.5089,0 -42.6387,1.3755 -52.2668,9.6282 -8.2527,6.8773 -19.25623,17.8809 -24.75798,42.6387 H 949.4474 l 8.25265,-94.9053 h 292.96915 l 8.2527,94.9053 h -26.1334 c -5.5018,-26.1333 -16.5053,-35.7614 -26.1334,-42.6387 -8.2527,-8.2527 -23.3825,-9.6282 -50.8914,-9.6282 h -26.1334 v 224.1973 c 0,17.8806 2.7509,38.5124 8.2527,42.6387 6.8772,4.1261 16.5053,16.5052 34.386,17.8807 v 16.5054 h -137.5442 v -16.5054 c 20.6317,-1.3755 30.2597,-12.3791 34.3861,-17.8807 2.7509,-2.7509 5.5017,-34.3862 5.5017,-42.6387 0,-6.8772 2.7509,-222.8218 4.1264,-232.4497 z"/><path id="path850" fill="url(#linearGradient875)" fill-opacity="1" stroke="#2e3436" stroke-dasharray="none" stroke-linecap="butt" stroke-linejoin="miter" stroke-miterlimit="4" stroke-opacity="1" stroke-width="17.881" d="m 1077.6507,1089.0963 -25.0451,-0.3627 c -27.506,-0.3984 -42.6387,1.3755 -52.2668,9.6282 -8.2527,6.8773 -19.25623,17.8809 -24.75798,42.6387 H 949.4474 l 8.25265,-94.9053 h 292.96915 l 8.2527,94.9053 h -26.1334 c -5.5018,-26.1333 -16.5053,-35.7614 -26.1334,-42.6387 -8.2527,-8.2527 -23.3825,-9.6282 -50.8914,-9.6282 h -26.1334 v 224.1973 c 0,17.8806 2.7509,38.5124 8.2527,42.6387 6.8772,4.1261 16.5053,16.5052 34.386,17.8807 v 16.5054 h -137.5442 v -16.5054 c 20.6317,-1.3755 30.2597,-12.3791 34.3861,-17.8807 2.7509,-2.7509 5.5017,-34.3862 5.5017,-42.6387 0,-6.8772 2.0253,-221.008 2.3125,-232.8125"/></g></g></g><metadata id="metadata4697"/></svg>