<svg xmlns="http://www.w3.org/2000/svg" xmlns:svg="http://www.w3.org/2000/svg" xmlns:xlink="http://www.w3.org/1999/xlink" id="svg38" width="32" height="32" version="1.1"><metadata id="metadata42"/><defs id="defs23"><linearGradient id="c"><stop id="stop2" offset="0" stop-color="#fff"/><stop id="stop4" offset="1" stop-color="#fff" stop-opacity="0"/></linearGradient><linearGradient id="b"><stop id="stop7" offset="0" stop-color="#fff"/><stop id="stop9" offset="1" stop-color="#fff" stop-opacity="0"/></linearGradient><linearGradient id="a"><stop id="stop12" offset="0" stop-color="#f56e6e"/><stop id="stop14" offset="1" stop-color="#ff2929"/></linearGradient><filter id="d" width="1.201" height="2.807" x="-.1" y="-.904"><feGaussianBlur id="feGaussianBlur17" stdDeviation="1.788"/></filter><linearGradient id="e" x1="29.456" x2="28.444" y1="43.948" y2="15.222" gradientUnits="userSpaceOnUse" xlink:href="#a"/><linearGradient id="f" x1="24" x2="26.878" y1="10.619" y2="70.744" gradientUnits="userSpaceOnUse" xlink:href="#b"/><radialGradient id="h" cx="17.125" cy="23.839" r="2" fx="17.125" fy="23.839" gradientTransform="matrix(0,-15.82179,7.34069,0,-150.991,303.006)" gradientUnits="userSpaceOnUse" xlink:href="#c"/><radialGradient id="radialGradient849" cx="17.125" cy="23.839" r="2" fx="17.125" fy="23.839" gradientTransform="matrix(0,-15.82179,7.34069,0,-150.991,303.006)" gradientUnits="userSpaceOnUse" xlink:href="#c"/><radialGradient id="radialGradient851" cx="17.125" cy="23.839" r="2" fx="17.125" fy="23.839" gradientTransform="matrix(0,-15.82179,7.34069,0,-150.991,303.006)" gradientUnits="userSpaceOnUse" xlink:href="#c"/></defs><g id="g36" color="#000" transform="matrix(0.60378536,0,0,0.60378536,1.6471921,0.3651264)"><rect id="rect25" width="42.75" height="4.75" x="2.375" y="37.75" filter="url(#d)" opacity=".506" rx="2.5" ry="2.5" style="marker:none"/><path style="marker:none" id="g" fill="url(#e)" stroke="#a40000" stroke-linecap="round" stroke-linejoin="round" stroke-width="5" d="M 41.5,38.500001 H 6.4999954 L 23.999998,7.5000006 Z"/><path id="path28" fill="none" stroke="url(#f)" stroke-linecap="round" stroke-linejoin="round" d="M 23.84375,6.5 C 23.540505,6.5484647 23.275899,6.7325383 23.125,7 L 5.625,38 C 5.4507626,38.31141 5.4541778,38.691739 5.63398,38.99997 5.8137809,39.308202 6.1431632,39.498383 6.5,39.5 h 35 c 0.356837,-0.0016 0.686219,-0.191798 0.866021,-0.50003 C 42.545822,38.691739 42.549237,38.31141 42.375,38 L 24.875,7 C 24.668678,6.6350934 24.258031,6.4359916 23.84375,6.5 Z" opacity=".596" style="marker:none"/><g id="g34" fill="url(#h)"><path id="path30" fill="url(#radialGradient849)" d="m 25.721009,31.294601 a 3.005204,3.005204 0 1 1 -6.010408,0 3.005204,3.005204 0 1 1 6.010408,0 z" transform="matrix(0.65196,0,0,0.65196,9.15,10.638)" style="marker:none"/><path id="path32" fill="url(#radialGradient851)" d="m 23,28 h 2 l 1,-9 h -4 z" style="marker:none"/></g></g></svg>